<svg xmlns="http://www.w3.org/2000/svg" xmlns:xlink="http://www.w3.org/1999/xlink" width="211" height="42" viewBox="0 0 211 42">
    <defs>
        <rect id="b" width="207" height="36" rx="2"/>
        <filter id="a" width="105.8%" height="133.3%" x="-2.9%" y="-11.1%" filterUnits="objectBoundingBox">
            <feOffset dy="2" in="SourceAlpha" result="shadowOffsetOuter1"/>
            <feGaussianBlur in="shadowOffsetOuter1" result="shadowBlurOuter1" stdDeviation="1"/>
            <feColorMatrix in="shadowBlurOuter1" result="shadowMatrixOuter1" values="0 0 0 0 0 0 0 0 0 0 0 0 0 0 0 0 0 0 0.24 0"/>
            <feOffset in="SourceAlpha" result="shadowOffsetOuter2"/>
            <feGaussianBlur in="shadowOffsetOuter2" result="shadowBlurOuter2" stdDeviation="1"/>
            <feColorMatrix in="shadowBlurOuter2" result="shadowMatrixOuter2" values="0 0 0 0 0 0 0 0 0 0 0 0 0 0 0 0 0 0 0.12 0"/>
            <feMerge>
                <feMergeNode in="shadowMatrixOuter1"/>
                <feMergeNode in="shadowMatrixOuter2"/>
            </feMerge>
        </filter>
    </defs>
    <g fill="none" fill-rule="evenodd">
        <g transform="translate(2 2)">
            <use fill="#000" filter="url(#a)" xlink:href="#b"/>
            <use fill="#2B2B2B" xlink:href="#b"/>
        </g>
        <text fill="#FFF" font-family="Roboto-Medium, Roboto" font-size="14" font-weight="400" letter-spacing=".5" transform="translate(2 2)">
            <tspan x="88" y="24">GOOGLE</tspan>
        </text>
        <path fill="#FFF" d="M76.823 18.772V16h-1.977v2.772H72v1.98h2.846v2.852h1.977v-2.852h2.767v-1.98h-2.767zm-14.837-.356v3.168s3.068-.004 4.317-.004c-.677 2.054-1.728 3.172-4.317 3.172-2.62 0-4.665-2.127-4.665-4.752s2.045-4.752 4.665-4.752c1.385 0 2.28.487 3.1 1.167.657-.658.602-.752 2.273-2.333A7.949 7.949 0 0 0 61.986 12C57.576 12 54 15.582 54 20s3.575 8 7.986 8c6.592 0 8.203-5.75 7.669-9.584h-7.67z"/>
    </g>
</svg>
