<?xml version="1.0" standalone="no"?>
<!DOCTYPE svg PUBLIC "-//W3C//DTD SVG 1.1//EN" "http://www.w3.org/Graphics/SVG/1.1/DTD/svg11.dtd" >
<svg xmlns="http://www.w3.org/2000/svg">
<metadata>Generated by IcoMoon</metadata>
<defs>
<font id="icomoon" horiz-adv-x="1024">
<font-face units-per-em="1024" ascent="960" descent="-64" />
<missing-glyph horiz-adv-x="1024" />
<glyph unicode="&#x20;" horiz-adv-x="512" d="" />
<glyph unicode="&#xe900;" glyph-name="internet" d="M512.016 301.688c-54.744 0-99.32-44.632-99.32-99.312 0-54.728 44.568-99.248 99.32-99.248 54.696 0 99.264 44.528 99.264 99.248 0 54.68-44.568 99.312-99.264 99.312zM971.768 569.048c-122.792 144.352-286.056 223.816-459.752 223.816-173.704 0-336.968-79.472-459.84-223.816-21.232-24.928-21.232-65.536 0-90.528 10.392-12.064 24-18.736 38.624-18.736 14.536 0 28.184 6.672 38.448 18.736 102.128 119.952 238 186.008 382.768 186.008 144.72 0 280.584-66.056 382.68-186.008 10.304-12.064 24-18.736 38.536-18.736 14.576 0 28.32 6.672 38.536 18.736 10.304 12.096 15.984 28.208 15.984 45.296 0 17.096-5.632 33.144-15.984 45.232zM512.048 554.408c-120.848 0-234.208-55.136-319.432-155.2-21.184-25.040-21.184-65.64-0.040-90.576 10.352-12.128 24.048-18.736 38.576-18.736 14.536 0 28.232 6.608 38.536 18.736 64.608 75.928 150.632 117.768 242.36 117.768 91.608 0 177.752-41.84 242.328-117.768 10.304-12.128 23.872-18.736 38.488-18.736 14.576 0 28.184 6.608 38.496 18.736 10.304 12.096 15.944 28.184 15.944 45.256 0 17.176-5.632 33.232-15.896 45.32-85.224 100.064-198.632 155.2-319.36 155.2z" />
<glyph unicode="&#xe901;" glyph-name="parking" d="M512 923.72c-262.304 0-475.736-213.4-475.736-475.736 0-262.304 213.432-475.704 475.736-475.704s475.736 213.4 475.736 475.704c0 262.336-213.432 475.736-475.736 475.736zM512 58.768c-214.64 0-389.24 174.6-389.24 389.216s174.6 389.248 389.24 389.248 389.24-174.632 389.24-389.248c0-214.608-174.6-389.216-389.24-389.216zM465.464 408.936h186.216v93.144h-186.216v105.152h197.536v93.872h-312.448v-506.216h322.904v93.88h-207.992v120.168z" />
<glyph unicode="&#xe902;" glyph-name="check-in" d="M971.752 794.824l-67.56 66.936c-9.272 9.384-20.496 14.144-33.328 14.144-12.712 0-24.048-4.752-33.32-14.144l-303.128-419.648-109.136 109.36c-9.504 9.336-20.608 14.032-33.552 14.032-12.832 0-24.048-4.696-33.328-14.032l-67.68-66.88c-8.928-8.936-13.288-20.328-13.288-34.128 0-13.448 4.36-24.624 13.288-33.488l210.368-210.256c9.272-9.336 20.384-14.080 33.328-14.080 13.4 0 24.728 4.752 34.232 14.080l403.104 520.656c8.936 8.76 13.512 19.984 13.512 33.328 0 13.96-4.576 25.296-13.512 34.12zM878.36 163.016c0-47.472-38.648-86.064-86.056-86.064h-582.032c-47.408 0-86 38.592-86 86.064v569.976c0 47.472 38.592 86.064 86 86.064h501.296c55.592 67.728 76.672 86.056 76.672 86.056h-577.968c-94.88 0-172.064-77.216-172.064-172.12v-569.984c0-94.912 77.184-172.12 172.064-172.12h582.032c94.872 0 172.056 77.216 172.056 172.12v395.008l-86-91.448v-303.552z" />
<glyph unicode="&#xe903;" glyph-name="transportation" d="M650.328 145.936c-1.128-47.36 38.168-88.656 85.752-89.96 48.352-1.328 87.464 36.656 88.408 85.928 0.944 50.176-34.736 87.912-84.4 89.152-48.032 1.24-88.632-37.24-89.76-85.12zM37.112 218.184c-0.136-43.816 21.624-68.808 62.768-73.176 12.936-1.4 35.648 10.224 40.288 21.496 36.224 88.456 79.48 125.312 150.272 122.248 69.48-3.112 113.864-46.056 140.136-135.432 0.496-1.464 1.76-2.768 6.712-10.248 23.792 0 48.4 0.88 72.816-0.184 46.144-2.032 85.792-7.464 99.224 59.408 11.536 57.152 76.104 88.792 134.632 86.376 58.128-2.432 110.76-41.136 130.176-96.672 5.36-15.136 9.056-30.864 13.16-45.28 83.944-7.68 112.832 24.464 94.128 102.512-42.448 176.68-85.52 353.2-127.968 529.768-9.688 40.48-32.080 61.304-75.928 61.080-221.656-0.88-443.304-0.224-664.992-0.584-52.408-0.064-74.848-22.144-74.936-74.552-0.528-182.2 0.192-364.488-0.488-546.76zM676.376 750.344c99.128 9.872 99.128 9.872 118.28-80.976 4.416-20.752 7.616-41.752 12.392-62.408 35.24-150.768 40.288-135.176-115.936-133.464-4.368 0.096-8.648 3.312-14.736 5.72v271.128zM406.648 750.12h195.56v-274.776h-195.56v274.776zM125.656 711.816c0.768 14.264 18.704 38.824 30.104 39.632 57.992 4.032 116.568 1.824 176.68 1.824v-280.568c-59.84 0-113.776 0.184-167.712-0.112-29.104-0.2-41.008 14.168-40.64 42.624 0.624 65.544-1.632 131.2 1.568 196.6zM195.456 141.808c1.264-46.168 44.88-87.592 90.44-85.84 48.128 1.824 86.064 42.040 85.072 90.248-1.080 48.232-41 86-89.664 84.824-48.184-1.224-87.288-41.848-85.848-89.232z" />
<glyph unicode="&#xe904;" glyph-name="fitness-center" d="M506.128 714.416c-43.040-5.728-73.192-44.92-67.432-87.584 5.76-42.624 45.336-72.592 88.336-66.872 43 5.688 73.232 44.92 67.44 87.544-5.736 42.664-45.272 72.632-88.344 66.912zM934.424 876.392l-41.984 6.704c-35.056 5.568-68.488-18.296-74.176-53.096l-7.752-47.816c-263.912 60.168-517.952 21.952-598.152 6.888l-6.624 40.928c-5.68 34.792-39.088 58.664-74.176 53.096l-41.984-6.704c-35.056-5.648-59.152-38.704-53.504-73.496l19.504-120c5.648-34.832 39.048-58.704 74.104-53.056l42.016 6.624c35.128 5.688 59.192 38.744 53.544 73.536l-4.064 24.848c13.216 2.448 32.16 5.688 55.504 9 5.008-67.096 26.472-159.232 96.128-292.672l69.696-120.304c-4.288-5.080-114.464-169.664-129.376-288.344-1.888-14.384 9.264-27.488 25.040-30.008 0.64-0.080 1.32-0.192 1.92-0.264 16.904-1.656 32.080 9.112 33.968 24.176 11.032 87.584 112.056 202.496 143.76 236.84 34.264-37.312 130.576-148.808 141.312-234.088 1.24-9.904 8.288-17.848 17.696-21.728 5.984-3.92 13.52-5.952 21.496-5.2 0.64 0.080 1.28 0.192 1.88 0.264 15.816 2.52 26.96 15.624 25.112 30.008-14.912 118.68-125.12 283.264-129.408 288.344l69.768 120.304c67.136 128.656 89.352 218.8 95.376 285.264 13.52-2.64 27.032-5.312 40.624-8.472l-2.896-17.96c-5.728-34.792 18.448-67.848 53.544-73.536l41.944-6.624c35.096-5.648 68.528 18.224 74.144 53.056l19.544 120c5.632 34.784-18.472 67.848-53.528 73.488zM671.648 606.384c-23.984-36.104-56.552-66.040-98.952-74.816l-2.784-0.752c-0.072-0.080-0.752-0.304-1.728-0.608l-38.032-5.040c-3.536-0.528-7.080-0.832-10.576-1.016 0 0-0.224-0.040-0.336-0.040l-0.416 0.040c-3.504 0.192-7.112 0.488-10.584 1.016-2.184 0.304-4.256 0.224-6.32 0.072-8.968 0.864-17.624 2.032-25 3.24-5.192 1.28-8.36 2.256-8.432 2.336l-2.752 0.752c-97.784 20.368-125.272 151.552-132.952 214.24 114.432 16.568 223.736 16.040 311.392 10.128 22.776-1.768 45.56-4.176 68.072-7.152-3.024-31.656-12.512-92.544-40.6-142.4z" />
<glyph unicode="&#xe905;" glyph-name="pool" d="M244.92 406.456c63.48 0 123.656-19.192 178.744-57.128 1.36-0.912 2.648-1.88 3.928-2.952l5.52-4.504c1.24-1.064 2.408-2.12 3.616-3.24 12.544-12.448 56.68-47.96 92.152-47.96 11.888 0 21.368 4.296 30.648 13.856 0.424 0.504 4.896 4.72 5.48 5.2 25.288 22.36 60.096 45.432 100.656 63.096-21.208 35.392-50.664 80.184-83.872 118.176-48.096 64.176-74.088 112.488-95.376 152.384-5.208 9.752-10.184 19.056-15.152 27.976-0.312 0.52-0.544 1.024-0.736 1.44 18.144 25.176 132.36 56.024 240.784 64.408 26.184 2.064 45.92 25.64 43.976 52.696-1.984 27-24.632 47.264-51.008 45.296-63.096-4.816-272.416-27.68-319.072-118.376-15.152-29.424-14.024-62.856 3.376-94.184 4.744-8.512 9.328-17.312 14.376-26.656 11.464-21.464 24.168-45.256 40.52-72.352-51.672-22.224-126.728-59.48-210.528-117.536 4 0.144 7.928 0.36 11.968 0.36zM639.312 577.56c-23.424-56.272 1.792-121.48 56.408-145.608 54.584-24.224 117.832 1.848 141.176 58.12 23.384 56.272-1.824 121.52-56.408 145.664-54.496 24.168-117.784-1.96-141.176-58.176zM64.808 224.328c7.384 0 14.536 2.856 19.968 8.064 7.152 6.736 72.496 65.832 159.32 65.832 37.96 0 74.472-11.48 108.432-34.128 0.424-0.352 0.968-0.72 1.36-1.152 40.64-39.216 108.432-81.152 176.92-81.152 43.32 0 81.776 16.856 115.264 50.76 12.040 10.368 76.84 62.176 156.64 62.176 50.424 0 96-20.704 135.584-61.56 5.592-5.752 12.976-8.84 20.864-8.84 7.928 0 15.272 3.088 20.864 8.84 5.592 5.768 8.664 13.424 8.664 21.504 0 8.216-3.072 15.816-8.664 21.584-50.968 52.584-110.256 79.256-176.144 79.256-80.376 0-154.624-40.072-196.968-77.328l-2.024-1.928c-21.44-22.104-46.968-33.296-76.024-33.296-68.84 0-133.88 63.736-136.016 65.808l-4.816 4.024c-44.408 30.496-92.496 46.016-143.12 46.016-84.768 0-160.84-44.056-200.232-81.856-11.888-11.288-12.544-30.52-1.552-42.792 5.68-6.376 13.336-9.832 21.68-9.832zM803.88 234.272c-80.376 0-154.624-40.088-196.968-77.328l-2.024-1.888c-21.44-22.104-46.968-33.352-76.024-33.352-68.84 0-133.88 63.688-136.016 65.864l-4.816 4c-44.408 30.536-92.496 46-143.12 46-84.768 0-160.84-44.112-200.232-81.8-11.888-11.304-12.544-30.536-1.552-42.888 5.52-6.176 13.48-9.792 21.68-9.792 7.384 0 14.536 2.856 19.968 8.136 7.224 6.696 72.808 65.768 159.32 65.768 37.96 0 74.472-11.52 108.432-34.072 0.424-0.384 0.968-0.792 1.36-1.2 40.64-39.24 108.432-81.056 176.92-81.056 43.32 0 81.776 16.76 115.264 50.6 12.12 10.392 76.88 62.256 156.712 62.256 50.344 0 95.92-20.728 135.512-61.576 5.592-5.688 12.976-8.896 20.864-8.896 7.928 0 15.272 3.208 20.864 8.896 11.504 11.888 11.504 31.2 0 43.104-50.968 52.576-110.256 79.224-176.144 79.224z" />
<glyph unicode="&#xe906;" glyph-name="business-center" d="M439.848 478.752l77.808-59.432 68.816 59.432c-43.8 16.976-146.624 0-146.624 0zM512 527.080c109.256 0 197.824 88.512 197.824 197.768 0.008 109.264-88.568 197.808-197.824 197.808s-197.76-88.544-197.76-197.816c0.008-109.248 88.504-197.76 197.76-197.76zM644.616 467.064c-9.456 2.408-77.648-58.976-86.784-73.624 0 0 24.128-27.952 24.184-28.456l24.224-242.080c0.088-0.92-82.536-66.592-82.536-66.592-0.64-0.616-1.552-1.024-2.392-1.024-0.904 0-1.8 0.408-2.392 1.024l-80.728 58.352c-0.68 0.68 25.648 249.752 25.992 250.168l22.144 28.752c-9.048 14.544-102.376 74.752-112.832 71.952-158.832-42.6-272.616-159.976-272.616-329.928 0-216.344 822.248-216.344 822.248 0-0.008 172.048-116.576 290.208-278.512 331.456zM502.696 337.888l-16.36-198.288 32.632-42.88 38.864 39.232-22.496 204.072-13.248 39.176-19.392-41.312z" />
<glyph unicode="&#xe907;" glyph-name="spa" d="M820.856 211.216c-4.856-259.216-302.856-247.216-187.856 7.784-237.512-41.848-245.848 272.568 23 218-116 218 181 248 155.144 13.616 33.896 30.992 19.936 15.232 37.792 34.536 1.368 3.6 3.2 8.416 4.568 12.016-0.216 37.92-22.504 103.328-63.288 132.28-12.192 8.68-22.912 10.696-39.248 7.68-32.36-6.592-67.84-10.24-105.016-10.24-56.536 0-109.112 8.416-152.872 22.848l0.632-0.008c77.904 0 276.216 29.272 275.968 136.456-0.184 75.376-123.552 136.464-275.976 136.464-152.416 0-275.976-61.088-275.976-136.456 0-41.512 37.48-78.68 96.616-103.704-108.68-30.808-181.896-88.728-181.896-155.112 0-55.84 51.808-105.688 132.952-138.456-137.392-39.104-229.888-112.448-229.888-196.48 0-125.144 205.144-226.576 458.2-226.576 102.912 0 197.904 16.784 274.376 45.112 15.16 6.072 141.8 47.72 178.736 111.928-45.688-2.664-71.768 3.048-125.968 88.312zM814.6 332.368c308.536 63.384 162.92 294.944-22.792 66-1.592 231.072-208.64 259.856-71.264-11.28-268.152 89.392-276.536-206.696-13.968-106.136-148.040-229.776 60.12-342.552 86.12-9.312 197.456-266.76 324.488 9.312 21.904 60.728z" />
<glyph unicode="&#xe908;" glyph-name="meeting-rooms" d="M511.248 448.24c64.92 0 117.544 52.624 117.544 117.544 0 64.912-52.624 117.544-117.544 117.544-64.912 0-117.544-52.624-117.544-117.544s52.624-117.544 117.544-117.544zM802.12 411.624c48.648 0 88.088 39.44 88.088 88.088s-39.44 88.088-88.088 88.088-88.088-39.44-88.088-88.088 39.44-88.088 88.088-88.088zM40.632 279.912l-6.168-67.232h199.808l7.888 85.624c2.784 30.28 14.736 56.296 33.328 78.088-102.888 20.304-227.088-11.92-234.856-96.48zM290.656 294.688l-7.536-82.008h457.768l-7.544 82.008c-15.312 166.648-427.416 166.192-442.688 0zM219.816 587.808c-48.648 0-88.088-39.44-88.088-88.088s39.44-88.088 88.088-88.088c48.648 0 88.088 39.44 88.088 88.088s-39.44 88.088-88.088 88.088zM983.368 279.912c-7.768 84.752-127.216 116.784-230.024 96.408 18.472-21.712 30.4-47.728 33.176-78.008l7.888-85.624h195.128l-6.168 67.224z" />
<glyph unicode="&#xe909;" glyph-name="atm" d="M691.024 188.328h-138.704v467.456h-340.336v-472.304c0-36.72 29.768-66.48 66.488-66.48h467.056c36.712 0 66.48 29.76 66.48 66.48v472.304h-120.984v-467.456zM956.736 779h-889.52c-16.872 0-30.552-13.68-30.552-30.552v-254.048c0-16.872 13.68-30.552 30.552-30.552h93.8c0 0 23.024 37.080 0 71.336h-53.064v172.488h808.056v-172.488h-53.024c-20.888-35.504 0-71.336 0-71.336h93.76c16.92 0 30.6 13.688 30.6 30.552v254.048c-0.008 16.872-13.688 30.552-30.608 30.552z" />
<glyph unicode="&#xe90a;" glyph-name="payment-methods" d="M704.464 534.776h-489.312c-7.712 0-15.224-0.832-22.488-2.416 0.2 0.096 0.28 0.264 0.464 0.368 1.864 2.048 3.72 3.896 5.768 5.76 1.848 2.048 3.8 4.088 5.848 5.944 1.96 2.048 3.808 3.904 5.848 5.768 1.864 2.032 3.816 3.992 5.848 5.84 1.856 2.056 3.816 4 5.856 5.856 1.848 2.048 3.808 4 5.848 5.864 17.64 19.224 42.824 31.296 70.984 31.296h5.744c3.168 9.008 7.528 17.56 13.2 25.192l17.272 23.032h-36.216c-39.68 0-77.864-16.544-105.080-45.432-2.048-1.848-4-3.816-5.864-5.76-1.936-1.944-3.984-3.896-5.848-5.944-1.96-1.856-3.896-3.8-5.84-5.752-1.968-1.864-3.92-3.816-5.784-5.848-2.024-1.864-3.992-3.92-5.944-5.944-2.032-1.864-3.992-3.816-5.848-5.784-1.952-1.848-3.896-3.808-5.76-5.84-2.048-1.864-4-3.912-5.944-5.848-1.944-1.952-3.912-3.92-5.76-5.856-2.048-1.864-3.992-3.8-5.848-5.856-28.904-27.216-45.432-65.4-45.432-105.056v-321.328c0-41.824 17.928-79.44 46.352-105.832 15.976-18.112 38.104-30.648 63.168-34.368 11.248-2.784 22.96-4.464 35.136-4.464h449.912v3.248h19.704c57.872 0 104.888 46.928 104.888 104.784v84.72h-260.216c-22.2 0-40.232 18.032-40.232 40.232v98.48c0 22.104 18.032 40.128 40.232 40.128h260.232v86.016c0 57.888-47.016 104.8-104.888 104.8zM906.712 727.080l-244.512 182.824c-11.888 8.824-26.288 13.752-40.496 13.752-18.792 0-35.584-8.176-46.288-22.488l-225.2-300.992c-5.656-7.616-9.008-16.264-10.208-25.176h51.656l222.408 297.368c1.96 2.704 5.576 3.072 7.632 3.072 3.88 0 8.064-1.48 11.608-4.184l244.512-182.824c7.624-5.68 9.472-14.128 6.496-18.208l-93.088-124.4c13.096-9.848 24.608-21.744 33.736-35.4l97.896 130.904c19.52 26.016 12.176 64.464-16.152 85.752zM554.512 256.264c0-25.176 20.352-45.528 45.528-45.528 25.080 0 45.512 20.352 45.512 45.528 0 25.168-20.432 45.52-45.512 45.52-25.176-0.008-45.528-20.352-45.528-45.52z" />
<glyph unicode="&#xe90b;" glyph-name="bar" d="M675.048 611.536h-326.096c-9.816 0-17.848-6.712-17.848-14.904l56.112-609.72c0-8.2 5.544-14.904 12.312-14.904h224.952c6.768 0 12.312 6.712 12.312 14.904l56.112 609.72c0 8.192-8.032 14.904-17.856 14.904zM348.536 662.36h326.928c9.856 0 17.848 7.992 17.848 17.848 0 71.696-41.936 133.624-102.48 163.024v62.92c0 9.816-8.032 17.848-17.848 17.848h-121.968c-9.816 0-17.848-8.032-17.848-17.848v-62.912c-60.544-29.4-102.48-91.328-102.48-163.024 0-9.864 7.992-17.856 17.848-17.856z" />
<glyph unicode="&#xe90c;" glyph-name="restaurant" d="M330.64 252.080l-35.032 45.616-208.224-199.656c-17.6-16.592-18.024-44.088-1.16-61.216l8.648-8.84c16.824-17.128 44.832-17.576 62.352-1.056l208.352 199.704c-13.68 5.44-25.984 14.072-34.936 25.448zM542.656 453.104c65.92-66.936 165.968-77.352 223.152-23.192l220.016 208.376-40.704 41.264-183.784-174.144-0.304 0.256c-0.256-0.256-20.008-21.256-41.568-21.552-9.208-0.112-17.296 3.568-25.952 12.216-0.168 0.064-1.288 0.968-2.752 2.456-8.776 8.88-18.976 28.4 10.752 58.976l187.312 177.432-46.6 47.376-170.176-161.28-0.168 0.728-11.064-10.976c-16.312-15.944-31.28-23.944-44.624-23.792-10.416 0.064-17.728 5.272-21.984 9.576-1.416 1.616-2.408 2.816-3.44 4.192-20.224 20.528-7.616 43.096 5.976 58.072l190.84 180.728-40.712 41.352-219.88-208.416c-27.88-26.464-41.528-63.944-38.296-105.792 3.144-41.264 22.376-81.672 53.96-113.856zM123.92 819.312c-15.064 15.424-38.032 16.088-53.44 1.616-1.72-1.72-3.36-3.68-4.952-5.808l-17.424-23.8c-13.68-18.632-13.168-47.632 1.208-65.856l332.152-432.48c14.504-18.312 43.248-24.312 63.984-13.512l20.784 10.888c14.16 7.336 35.416 3.976 46.472-7.336l250.696-254.952c16.872-17.216 44.84-17.664 62.352-1.144l9.040 8.608c17.464 16.48 17.896 44.016 1.072 61.128l-711.944 722.648z" />
<glyph unicode="&#xe90d;" glyph-name="wheelchair-accessible" d="M445.6 65.264c-122 0-221.232 99.224-221.232 221.2 0 56.928 22.936 107.888 52.784 143v121.776c-90.56-58.296-146.208-157.272-146.208-264.776 0-173.488 141.16-314.648 314.664-314.648 139.912 0 256.176 82.704 296.944 208.336l-69.816 86.040c-18.672-116.432-114.2-200.928-227.136-200.928zM421.848 754.544c46.808 0 84.824 37.992 84.824 84.8 0 46.872-38.016 84.84-84.824 84.84s-84.784-37.976-84.784-84.84c0-46.808 37.976-84.8 84.784-84.8zM884.936 211.52l-150.832 228.56c-6.080 9.192-14.688 15.488-24.208 18.872-5.968 2.968-12.504 4.664-19.392 4.72l-194.048 1.264v37.44l136.496-0.88c18.12-0.096 33 14.168 33.12 32.008 0.072 17.8-14.536 32.336-32.664 32.472l-136.952 0.88v63.52c0 49.872-35.68 90.272-79.704 90.272-44.016 0-79.696-40.4-79.696-90.272v-195.976c0 0-7.304-86.864 98.056-87.752l249.96 0.040 122.032-186.584c14.536-22.088 43.832-28.496 65.32-14.264 21.496 14.168 27.12 43.6 12.512 65.68z" />
<glyph unicode="&#xe90e;" glyph-name="beach-pool-facilities" d="M747.408 793c-8.152 6.712-16.408 13.272-24.912 19.6v0l-0.056-0.008-0.008 0.032c-8.56 6.288-17.248 12.24-26.040 18.016-189.904 124.256-430.536 119.152-612.56 1.112-12.944-8.448-14.144-27.392-1.856-36.896 0.264-0.2 0.528-0.392 0.792-0.592 1.856-1.312 3.704-2.624 5.504-3.976 75.712-55.824 116.752-141.088 119.2-228.344 0.056-2.68 0.224-5.368 0.216-8.080 0.032-7.168 3.504-13.392 8.824-17.344l0.192-0.12c4.312-3.152 9.76-4.808 15.528-4.32 0.88 0.072 1.816 0.104 2.632 0.16 66.952 5.224 135.448-9.112 196.888-43.904l-330.432-448.176c-13.608-18.464-9.672-44.48 8.784-58.088v0c18.464-13.648 44.432-9.72 58.096 8.784l330.432 448.16c51.392-48.376 85.376-109.6 100.168-175.048 0.128-0.864 0.392-1.736 0.624-2.584 1.216-5.688 4.472-10.44 8.792-13.656v0c5.368-3.936 12.4-5.472 19.272-3.336 2.584 0.8 5.16 1.424 7.76 2.144 84.080 23.456 177.648 9.48 253.368-46.336 1.856-1.336 3.656-2.728 5.464-4.104 0.136-0.12 0.272-0.224 0.408-0.344 12.488-9.208 30.6-3.312 34.816 11.696 59.392 208.944-6.816 440.776-181.896 585.552zM718.96 711.456c12-144.12-29.344-270.36-67.672-352.84-29.72 67.736-76.688 127.048-137.12 171.552-60.376 44.544-130.96 71.928-204.56 80.272 67.432 60.976 175.776 137.808 317.232 168.936 25.584 5.64 52.224 9.752 79.968 12 6-27.128 9.984-53.808 12.152-79.92z" />
<glyph unicode="&#xe90f;" d="M871.8 398.432h-719.6c-19.224 0-34.96-15.736-34.96-34.968s15.736-34.968 34.96-34.968h719.6c19.224 0 34.96 15.736 34.96 34.968 0 19.224-15.736 34.968-34.96 34.968z" />
<glyph unicode="&#xe910;" d="M689.168 122.784c42.424 18.776 11.416 115.592 72.76 181.72h-73.144c-52.632-23.752-59.36-85.528-131.912-83.752-57.64 1.368-125.648 25.856-239.672 83.752h-99.728c73.72-61.392 191.704-115.712 265.424-177.928l44.4-61.48h-48.928v-93.208h289.904v93.208h-65.216l-13.888 57.688z" />
<glyph unicode="&#xe911;" d="M490.864 766.664l27.808 52.128h-146.128l42.928-52.128z" />
<glyph unicode="&#xe912;" d="M484.392 490.624c-54.392-3.264-95.432-17.888-95.432-35.424h236.792c0 17.768-42.064 32.52-97.456 35.544l-43.904-0.12z" />
<glyph unicode="&#xe913;" d="M381.352 766.664l103.048-125.248v-128.632h43.92l-0.008 116.552v12.080l153.688 186.776c7.688 9.328 4.048 16.944-8.008 16.944h-101.456l23.352 43.856-29.624 19.032-33.552-62.888h-193.992c-12.040 0-15.664-7.624-8.008-16.944l50.64-61.528zM558.472 818.792h81.664l-42.88-52.128h-66.6l27.816 52.128zM484.392 818.792h34.28l-27.808-52.128h-75.392l-42.928 52.128h111.848z" />
<glyph unicode="&#xe914;" d="M571.448 917.224l24.44-28.232-12.472 34.968c-4.784-0.536-9.064-2.976-11.968-6.736z" />
<glyph unicode="&#xe915;" d="M697.312 924.104h-103.416l1.992-35.112h101.424z" />
<glyph unicode="&#xe916;" glyph-name="laundry-facilities" d="M240.24 16.352c0-23.736 17.624-43.040 39.256-43.040h465c21.632 0 39.216 19.304 39.216 43.040v24.184h-543.472v-24.184zM240.24 67.144h543.472v35.24h-543.472v-35.24zM744.496 471.864h-465c-20.472 0-37.040-17.28-38.92-39.176-0.072-1.352-0.336-2.584-0.336-3.864v-277.656h543.472v277.656c0 1.272-0.192 2.512-0.336 3.864-1.808 21.888-18.448 39.176-38.88 39.176zM946.232 479.736l-343.64 207.248c-19.304 11.656-43.448 19.080-69.36 21.744v12.112c51.288 6.256 91.136 48.888 91.136 100.512 0 55.904-46.712 101.336-104.112 101.336-57.36 0-104.080-45.44-104.080-101.336h38.576c0 35.128 29.392 63.776 65.496 63.776 36.144 0 65.536-28.64 65.536-63.776 0-35.168-29.392-63.768-65.536-63.768v-0.112h-29.24v-48.704c-26.024-2.624-50.24-10.088-69.656-21.784l-343.56-207.248c-32.088-19.344-45.216-39.928-39.024-61.112 6.184-21.184 28.456-31.904 66.248-31.904h119.552v46.936c0 1.16 0.264 2.248 0.336 3.448h-119.552l343.304 207.024c16.2 9.784 39.296 15.368 63.36 15.368 23.992 0 47.128-5.584 63.36-15.368l343.304-207.024h-119.64c0.080-1.2 0.376-2.288 0.376-3.448v-46.936h119.552c37.752 0 60.104 10.72 66.248 31.904 6.232 21.184-6.928 41.768-38.984 61.112z" />
<glyph unicode="&#xe917;" glyph-name="hair-salon" d="M924.312 187.856c-34.928 74.992-124.232 107.48-199.224 72.512-23.312-10.872-42.496-26.968-56.848-46.24l-325.584 698.232c-3.656 7.872-13.096 11.312-20.968 7.656l-28.576-13.352c-63.032-29.408-90.48-104.744-61.072-167.768l201.312-431.72c20.224-43.456 71.904-62.248 115.312-42.016l7.176 3.352 96.696-207.36c34.976-75.032 124.272-107.528 199.264-72.552 75.040 34.96 107.488 124.216 72.512 199.256zM512 304.384c-21.792 0-39.456 17.664-39.456 39.456s17.664 39.456 39.456 39.456c21.792 0 39.456-17.664 39.456-39.456-0.008-21.792-17.664-39.456-39.456-39.456zM788.448 53.448c-39.232 0-71.032 31.8-71.032 71.032s31.8 71.032 71.032 71.032c39.216 0 71.008-31.8 71.008-71.032 0-39.24-31.792-71.032-71.008-71.032zM791.992 738.888c29.408 63.024 1.96 138.368-61.072 167.768l-28.624 13.352c-7.872 3.656-17.272 0.216-20.968-7.656l-143.184-307.088 95.776-205.4 158.072 339.024zM390.416 287.16l-0.304 0.648-34.368-73.68c-14.352 19.272-33.536 35.36-56.808 46.24-75.032 34.976-164.288 2.48-199.264-72.512-34.976-75.032-2.48-164.296 72.512-199.264 75.032-34.976 164.296-2.48 199.264 72.552l76.816 164.728c-24.528 13.224-45.184 34.144-57.848 61.288zM235.568 53.448c-39.232 0-71.032 31.8-71.032 71.032s31.8 71.032 71.032 71.032c39.216 0 71.008-31.8 71.008-71.032 0-39.24-31.792-71.032-71.008-71.032z" />
<glyph unicode="&#xe918;" glyph-name="golf" d="M819.424 632.256l-438.48 201.816v28.448c0 32.936-26.488 59.64-59.168 59.64-32.672 0-59.168-26.704-59.168-59.64v-778.16c-44.392-11.648-72.208-28.28-72.208-46.76 0-35.216 100.872-63.76 225.304-63.76s225.304 28.544 225.304 63.76c0 35.216-100.872 63.76-225.304 63.76-11.824 0-23.432-0.264-34.76-0.76v285.4l438.472 201.808c8.632 3.968 14.168 12.656 14.168 22.224 0.008 9.576-5.528 18.256-14.16 22.224z" />
<glyph unicode="&#xe919;" glyph-name="shared-kitchen" d="M459.136 499.968c-23.456 8.088-50.52-11.832-63.68-45.152l-15.296 69.328c-19.968 90.496-98.856 150.728-175.264 133.872-76.44-16.864-122.624-104.696-102.656-195.192l103.624-469.648c3.184-14.44 15.744-24.024 27.912-21.344 12.2 2.696 19.536 16.672 16.352 31.104l-7.672 34.784 233.648 51.552-10.728 48.64-24.792 112.36 45.296 161.272c11.152 39.688-0.864 79.464-26.744 88.424zM232.016-20.16c-7.56-1.672-16.424 8.776-19.6 23.176l-5.904 26.776 27.632 6.096 5.904-26.776c3.176-14.4-0.4-27.592-8.032-29.272zM799.152 924.12c-77.92 7.096-148.592-62.592-157-154.888l-6.44-70.696c-17.248 31.4-46.616 47.752-68.864 36.776-24.544-12.152-31.448-53.12-15.4-91.088l65.256-154.28-14.96-164.184 238.28-21.704-3.232-35.472c-1.344-14.72 7.696-27.664 20.144-28.8 12.408-1.128 23.664 9.96 25 24.688l7.752 85.072 35.88 393.88c8.424 92.28-48.456 173.592-126.416 180.696zM874.224 273.4c-1.336-14.688-8.816-26.168-16.528-25.464-7.784 0.712-12.992 13.336-11.656 28.032l2.488 27.304 28.184-2.568-2.488-27.304z" />
<glyph unicode="&#xe91a;" glyph-name="noise-free-rooms-not--guarantee" d="M879.040 319.488c-5.040-21.616-24.2-36.872-46.432-36.92-22.272-0.040-41.52 15.256-46.568 36.92l-24.728 106.064-60.336-258.824c-5.040-21.616-24.2-36.872-46.432-36.92-22.232-0.040-41.48 15.216-46.568 36.872l-95.976 411.68-95.984-411.632c-5.040-21.616-24.2-36.872-46.432-36.92-22.232 0-41.48 15.256-46.52 36.872l-60.376 258.872-24.728-106.064c-5-21.664-24.2-36.92-46.432-36.92-22.232-0.040-41.48 15.216-46.52 36.92l-20.696 88.744h-49.816c-21.928 0-39.768 17.8-39.768 39.768s17.848 39.768 39.768 39.768h75.064c16.968 0 32.136-8.904 40.648-22.712l26 111.456c5.040 21.704 24.288 36.96 46.568 36.92 22.184-0.040 41.392-15.304 46.392-36.92l60.376-258.872 95.976 411.64c5.040 21.656 24.296 36.96 46.568 36.92 22.184-0.048 41.392-15.304 46.392-36.92l95.984-411.632 60.376 258.872c5.040 21.704 24.336 36.96 46.656 36.92 22.144-0.088 41.304-15.304 46.344-36.872l25.96-111.504c8.504 13.816 23.72 22.712 40.688 22.712h75.024c21.968 0 39.768-17.8 39.768-39.768s-17.8-39.768-39.768-39.768h-49.768l-20.704-88.752z" />
<glyph unicode="&#xe91b;" glyph-name="pool-bar" d="M255.96 706.56l268.952-326.88v-21.136c0 0 0-89.344 0-141.008 0-34.528 76.856-40.16 76.856 0.2 0 55.664 0 140.808 0 140.808v21.136l268.952 326.872c13.464 16.32 7.104 29.656-14.008 29.656h-177.552l40.88 76.752-51.864 33.312-58.72-110.064h-339.488c-21.064 0.008-27.424-13.336-14.008-29.648zM654.568 690.112h142.92l-75.064-91.232h-116.544l48.688 91.232zM584.92 690.112l-48.68-91.232h-131.952l-75.112 91.232h255.744zM897.536 874.416h-180.976l3.48-61.448h177.496v61.448zM628.44 162.248l-1.888-1.76c-19.968-20.52-43.616-30.952-70.592-30.952-63.936 0-124.296 59.112-126.232 61.152l-4.464 3.704c-41.232 28.336-85.944 42.696-132.888 42.696-78.736 0-149.272-40.96-185.84-75.936-11.032-10.48-11.672-28.336-1.488-39.816 5.12-5.712 12.52-9.064 20.168-9.064 6.808 0 13.464 2.632 18.48 7.528 6.752 6.232 67.608 61.056 147.888 61.056 35.224 0 69.152-10.68 100.696-31.624 0.4-0.352 0.896-0.72 1.24-1.12 37.752-36.416 100.648-75.232 164.232-75.232 40.192 0 75.904 15.552 107.008 46.968 11.272 9.64 71.384 57.8 145.448 57.8 46.752 0 89.072-19.256 125.832-57.184 5.16-5.264 12.024-8.248 19.368-8.248 7.352 0 14.16 2.984 19.328 8.248 10.68 11.056 10.68 28.992 0 40.016-47.296 48.776-102.336 73.52-163.488 73.52-74.616 0.008-143.568-37.208-182.808-71.752zM677.272 862.368l42.768-49.408-21.856 61.224c-8.344-0.936-15.848-5.232-20.912-11.816zM324.064 572.952l-92.992 113.088c-20.864 25.312-14.112 47.072-10.288 55.264 3.88 8.176 16.448 27.224 49.184 27.224h145.152c-15.4 88.472-92.6 155.76-185.496 155.76-104.024 0-188.376-84.352-188.376-188.376 0-104.048 84.352-188.376 188.376-188.376 34.48 0.008 66.672 9.296 94.44 25.416zM811.248 132.84c-74.616 0-143.56-37.208-182.808-71.784l-1.888-1.736c-19.968-20.512-43.616-30.976-70.592-30.976-63.936 0-124.296 59.144-126.232 61.152l-4.464 3.72c-41.232 28.336-85.944 42.696-132.888 42.696-78.736 0-149.272-40.96-185.84-75.936-11.032-10.488-11.672-28.336-1.488-39.816 5.12-5.736 12.52-9.088 20.168-9.088 6.808 0 13.464 2.656 18.48 7.552 6.752 6.232 67.608 61.056 147.888 61.056 35.224 0 69.152-10.68 100.696-31.624 0.4-0.344 0.896-0.744 1.24-1.12 37.752-36.416 100.648-75.232 164.232-75.232 40.192 0 75.904 15.552 107.008 46.976 11.272 9.632 71.384 57.8 145.448 57.8 46.752 0 89.072-19.272 125.832-57.176 5.16-5.264 12.024-8.248 19.368-8.248 7.352 0 14.16 2.984 19.328 8.248 10.68 11.056 10.68 28.96 0 40.016-47.296 48.776-102.336 73.52-163.488 73.52z" />
<glyph unicode="&#xe91c;" glyph-name="pets" d="M961.888 720.96c-10.456 0-19.424-6.184-23.192-14.944-79.784-4.64-82.512-12.784-158.232 54.424-38.024 5.888-70.040 8.912-96.88 7.952-9.488 42.52-74.016 128.816-76.96 129.352-11.392 37.104-36.952-91.12-41.744-116.168-0.712-3.808 10.52-43.616 16.768-69.080-17.392-34.808-23.728-88.016-23.112-165.528-45.928-45.248-335.216-355.624-370.728-341.808-75.296 29.272-105.96 118.744-30.664 120.608 32.368 0.72 53.496 7.832 48.288 35.56-6.336 2.368-41.432 40.096-120.856 13.92-82.312-27.208-54.784-170.080 59.016-220.384l2.056-2.784c40.664-53.608 105.296-142.248 135.184-160.496 100.088 0 200.024 0 300.064 0 94.312 0 52.256 92.664 2.784 97.616l-78.136 5.56c-11.080 90.712 50.304 78.856 145.136 114.52 24.016-60.616 36.28-91.744 60.304-152.352 17.68-44.632 25.208-62.568 76.48-62.568 29.736 0 59.48 0 89.272 0-50.2 139.056-100.504 278.104-150.704 417.256-32.728 91.744 34.424 110.504 106.168 114.52 132.352 7.216 141.32 41.64 143.232 149.872 6.904 4.328 11.544 11.856 11.544 20.512 0.016 13.504-11.272 24.44-25.088 24.44z" />
<glyph unicode="&#xe91d;" glyph-name="no-pets-allowed" d="M243.976 324.28c-52.824 20.536-74.344 83.312-21.512 84.616 22.712 0.504 37.536 5.496 33.88 24.952-4.448 1.664-29.072 28.136-84.792 9.76-57.744-19.088-38.44-119.328 41.4-154.616l1.44-1.952c28.528-37.608 73.872-99.8 94.84-112.6h210.528c66.168 0 36.664 65.008 1.952 68.48l-54.816 3.904c-4.64 37.976 12.096 54.384 37.848 63.488l-94.728 157.16c-69.6-70.792-150.44-149.264-166.040-143.192zM507.848 918.68c-261.048 0-473.432-212.376-473.432-473.456 0-261.048 212.376-473.432 473.432-473.432 261.080 0 473.456 212.376 473.456 473.432 0.008 261.080-212.376 473.456-473.456 473.456zM507.848 32.504c-227.584 0-412.72 185.136-412.72 412.72 0 136.104 66.496 256.664 168.408 331.896l412.352-708.504c-51.4-23.024-108.168-36.112-168.040-36.112zM729.304 97.512l-414.536 712.256c57.664 30.672 123.336 48.208 193.080 48.208 227.584 0 412.752-185.168 412.752-412.752 0.008-146.064-76.488-274.336-191.296-347.712zM792.904 692.44c-7.336 0-13.632-4.336-16.272-10.488-55.976-3.256-57.888-8.968-111.008 38.184-30.312 4.696-55.176 6.784-75.456 5.136-10.44 31.224-50.424 84.56-52.36 84.904-7.992 26.032-25.928-63.928-29.288-81.504-0.552-2.936 9.008-36.304 12.936-53.376-8.64-24.176-11.896-58.24-11.528-104.936-3.512-3.464-9.056-9.136-16.184-16.488l218.368-371.208h21.056c-35.216 97.56-70.512 195.112-105.728 292.736-22.96 64.36 24.152 77.528 74.488 80.344 92.856 5.064 99.144 29.216 100.488 105.144 4.84 3.040 8.096 8.312 8.096 14.392 0 9.496-7.92 17.16-17.608 17.16z" />
<glyph unicode="&#xe91e;" glyph-name="newspaper" d="M166.368 540.152l-129.080-43.136c0 0 28.352-33.288 46.256-85.856 29-85.176 68.744-201.856 78-228.648 16.92-49 33.968-88.784 49.872-96.792 22.552-11.352 37.472 39 27.784 89.872-9.704 50.872-72.832 364.56-72.832 364.56zM985.432 367.352l-84.696 444.552-725.72-138.272c0 0 89.664-470.816 98.376-516.36 3.808-19.92 6.272-47.568-13.008-67.912 122.080 41.392 608.776 167.424 686.184 195.424 29.936 10.832 44.776 51.552 38.864 82.568zM265.152 613.624l593.184 114.104 11.384-70.536-590.016-123.16-14.552 79.592zM307.352 411.824l309.864 59.024 5.072-26.576-309.872-59.040-5.064 26.592zM321.672 336.64l309.872 59.032 5.064-26.568-309.872-59.048-5.064 26.584zM341.768 231.184l-5.064 26.568 309.88 59.048 5.064-26.576-309.88-59.040zM697.936 299.032l-34.416 180.632 231.216 44.056 34.416-180.64-231.216-44.048z" />
<glyph unicode="&#xe91f;" glyph-name="ipad" d="M710.96 924.424h-397.896c-80.088 0-145.24-65.152-145.24-145.216v-662.392c0-80.088 65.152-145.24 145.24-145.24h397.896c80.064 0 145.216 65.152 145.216 145.24v662.392c0 80.064-65.152 145.216-145.216 145.216zM409.176 117.456h-115.424v66.648h115.424v-66.648zM569.72 117.456h-115.4v66.648h115.4v-66.648zM730.248 117.456h-115.424v66.648h115.424v-66.648zM730.248 219.472h-436.496v559.072h436.496v-559.072z" />
<glyph unicode="&#xe920;" glyph-name="free-international-calls" d="M444.408 174.472c-34.056 8.144-103.224 96.608-129.024 138.992-26.104 42.080-73.928 143.784-65.608 177.728 8.032 34.208 108.056 56.336 111.984 73.416l-26.288 212.776c0 0-17.008 3.992-67.928 16.208-34.232 8.064-143.896-74.080-160.104-142.4-16.176-68.256-14.584-212.776 102.528-402.864 116.928-190.096 245.080-256.528 313.192-272.744 68.408-16.208 190.712 44.784 199.032 79.056 12.072 51.176 16.032 68.144 16.032 68.144l-177.92 119.36c-16.856 3.928-81.768-75.664-115.896-67.672zM510.088 776.208c-22.704 3.104-46.64-12.112-53.424-33.92-3.272-10.648-2.032-21.2 3.408-29.768 5.448-8.568 14.48-14.168 25.496-15.704 68.984-9.632 125.896-44.672 160.28-98.76 34.336-54.016 41.952-120.488 21.384-187.024-3.288-10.624-2.104-21.096 3.376-29.72 5.464-8.592 14.456-14.144 25.472-15.672 10.992-1.544 22.592 1.168 32.656 7.56 10.128 6.44 17.48 15.776 20.76 26.36 27.056 87.752 17.064 175.288-28.184 246.472-45.28 71.256-120.28 117.432-211.224 130.176zM861.92 735.432c-65.112 102.424-173.16 168.904-304.328 187.248-22.656 3.176-46.6-12.048-53.376-33.928-3.224-10.648-2.056-21.176 3.432-29.8 5.448-8.568 14.496-14.12 25.464-15.648 109.008-15.256 198.88-70.608 253.144-155.968 54.24-85.328 66.216-190.2 33.752-295.36-3.256-10.6-2.056-21.176 3.392-29.744 5.464-8.592 14.544-14.2 25.488-15.696 10.992-1.544 22.624 1.144 32.704 7.552s17.432 15.744 20.68 26.376c39.088 126.504 24.752 252.552-40.352 354.968z" />
<glyph unicode="&#xe921;" glyph-name="waterpark-access" d="M988.776 358.208c-18.152 43.968-56.472 23.128-67.216 19.256-10.752-3.88-124.624-33.928-124.624-33.928-84.48-20.648-152.384-4.512-152.384-4.512s120.792 83.16 111.632 222.976c-9.168 139.816-126.536 189.144-222.688 192.104-96.152 2.968-231.776-85.208-239.88-264.072-8.096-178.872 133.464-269.152 199.232-299.256 65.768-30.096 275.584-83.176 392.36-17.696 116.776 65.488 103.568 185.128 103.568 185.128zM959.616 342.048c-2.416-20.888-10.856-86.16-56.296-120.208 0 0-14.68-13.888-47.632-15.528 0 0-188.736-29.48-295.208 31.464-92.56 52.976-158.080 124.584-158.080 246.176 0 75.288 56.672 128 116.368 138.28 24.776 4.264 29.648 6.016 13.904-4.568-39.824-26.768-104.712-86.736-66.864-176.768 0 0 7.216-23.84 20.8-18.72s16.568 6.68 10.096 23.6c-6.48 16.92-19.512 40.008-10.256 65.688 0 0 25.664 100.008 108.080 100.008 82.408 0 65.576-118.936 41.288-145.104 0 0-35.944-68.368-89.848-71.008 0 0-15.488-0.472-24.168 4.952 0 0-12.544 9.576-21.448 3.512-8.896-6.064-5.504-9.208 12.824-28.28 0 0-0.928-6.88 41.432-42.64 64.768-54.68 189.064-44.792 366.952 12.464l16.176 5.776c0 0.016 24.296 11.792 21.88-9.096zM238.264 386.672c-50.52-1.192-132.264 1.048-199.912-75.784 0 0-19.832-42.008 33.872-26.528 0 0 55.32 44.552 107.136 44.552s88.048-10.52 88.048-10.52 17.296-8.552 24.256 1.352c0.008 0.008-2.88 68.12-53.4 66.928z" />
<glyph unicode="&#xe922;" glyph-name="beach" d="M477.968 163.992c-84.512 0-149.84-17.616-178.664-27.928-75.784-25.88-131.896-67.656-153.064-116.96-8.936-20.768 7-43.872 29.664-43.872h604.168c22.616 0 38.64 23.104 29.704 43.872-35.744 83.112-170.736 144.888-331.808 144.888zM875.936 642.968c-1.928 8.576-4.752 17.424-8.248 25.96-3.776 9.456-8.288 19.88-14.928 30.784-2.408 4.104-5.952 9.984-10.136 16.024-4.352 5.792-8.536 11.152-13.048 16.544-4.104 5.312-9.256 10.224-14.208 14.968l-1.568 1.496c-2.696 2.616-5.552 5.272-8.488 7.888-0.288 0.24-0.52 0.44-0.848 0.688-3.056 2.456-6.24 4.952-9.544 7.368l-2.256 1.688c-2.456 1.816-4.952 3.664-7.528 5.432-3.304 2.176-6.64 4.144-10.016 6.12l-1.448 0.848-10.944 6.080c-0.4 0.2-0.808 0.4-1.208 0.6-2.976 1.408-6 2.696-9.096 4.024l-3.024 1.288c-15.256 6.68-33.488 11.432-53.968 14.208-1.608 2.216-3.504 4.232-6 5.672-4.232 2.456-10.752 6.12-18.52 9.176-3.824 1.608-8.168 3.304-12.8 4.832-5.192 1.528-9.896 2.776-14.816 3.944-4.792 1.288-10.184 1.928-14.976 2.496l-1.448 0.16c-2.696 0.36-5.512 0.648-8.336 0.888-0.36 0-0.688 0.040-1.048 0.040-2.856 0.080-5.792 0.12-8.736 0.080h-1.936c-2.248 0-4.464-0.040-6.76-0.12-2.896-0.16-5.792-0.52-8.656-0.848l-1.128-0.16-3.984-0.52c-0.16 0.4-0.32 0.888-0.48 1.288l-0.968 1.928c-1.040 2.176-2.128 4.352-3.216 6.44-0.24 0.4-0.44 0.76-0.728 1.168l-4.504 7.248-0.848 1.288c-1.568 2.416-3.144 4.832-4.792 7.040-1.488 1.936-2.936 3.704-4.344 5.44l-1.248 1.528c-1.848 2.216-3.744 4.424-5.672 6.6-0.2 0.24-0.44 0.52-0.728 0.768-2.008 2.008-4.024 3.984-6.040 5.88l-1.040 1.008c-3.504 3.256-7.488 7-12.072 10.264-3.504 2.656-7.488 5.472-11.352 8.088-4.792 2.936-8.896 5.192-12.92 7.248-7.928 4.344-16.016 7.32-22.824 9.656-6.28 2.216-12.88 3.944-19.56 5.112-10.424 1.968-17.464 2.128-18.232 2.168-2.416 0.040-4.792-0.36-6.96-1.128-3.504-1.248-6.6-3.384-8.976-6.32-2.176-2.696-3.376-5.872-3.944-9.216-5.76 2.256-11.472 4.264-16.984 5.72l-3.056 0.888c-3.184 0.88-6.4 1.768-9.544 2.536-0.424 0.104-0.904 0.184-1.352 0.264l-3.144 0.52-8.856 1.528-1.968 0.288c-3.864 0.6-7.728 1.168-11.472 1.488-3.296 0.24-6.4 0.36-9.456 0.48l-2.856 0.12c-4.024 0.16-8.048 0.2-12.032 0.24-0.36 0-0.728-0.040-0.728-0.040-4.264-0.2-8.168-0.48-11.952-0.848l-2.096-0.16c-6.84-0.64-13.928-1.248-21.088-2.936-3.376-0.688-7.32-1.528-11.104-2.416-2.736-0.64-5.44-1.328-8.088-2.008-3.984-1.168-7.128-2.216-10.184-3.256-3.016-1.048-5.952-2.168-8.816-3.264-11.632-4.184-21.656-9.496-30.712-14.608-7.928-4.384-15.616-9.536-22.776-15.208-11.512-8.896-17.872-15.696-18.592-16.464-4.184-4.552-6.040-10.752-5.032-16.824 1.008-6.12 4.752-11.384 10.184-14.328 0.32-0.2 8.696-4.744 21.816-9.984l12.6-4.912 8.976-3.464 2.576-0.968 1.088-0.36c4.232-1.568 8.856-1.656 13.168-0.24l1.608 0.52c2.816 0.888 7.040 2.128 12.072 3.304l2.496 0.56c1.088 0.288 2.176 0.52 3.304 0.728-0.12-0.888-0.16-1.808-0.12-2.736 0.2-8.208 5.112-15.576 12.84-18.432l2.008-0.72c1.488-0.568 2.976-1.128 4.464-1.656 3.024-0.888 5.272-1.848 7.488-2.736 2.216-0.92 4.464-1.808 6.72-2.616 1.888-0.76 4.264-1.608 6.64-2.408h0.040c2.288-1.048 4.584-2.056 6.88-2.976l1.728-0.688c1.128-0.48 2.216-0.888 3.344-1.328-12.6-0.080-25.88-1.568-40.448-4.992-5.112-1.208-10.184-2.576-15.176-4.064-0.32-0.12-0.608-0.2-0.928-0.32-20.32-7.16-37.792-15.936-51.88-26.080l-2.616-1.808c-2.736-1.936-5.44-3.824-8.016-5.8-0.36-0.28-0.72-0.56-1.048-0.88l-5.672-4.952-3.456-3.056-1.528-1.328c-2.904-2.616-5.8-5.272-8.416-7.968-2.248-2.376-4.304-4.704-6.32-7.040l-1.928-2.128c-2.656-3.024-5.232-6.12-7.768-9.176-0.2-0.28-0.448-0.568-0.64-0.848-2.296-3.176-4.552-6.36-6.688-9.536l-1.168-1.696c-3.864-5.712-7.848-11.592-11.104-18.232-2.976-5.64-5.952-11.752-8.656-17.672-3.136-7.408-5.352-13.928-6.96-18.84-4.104-11.672-6.32-22.824-8.088-33.040-1.568-8.896-2.496-18.152-2.576-27.248-0.4-14.568 0.848-23.824 1.008-24.832 0.848-6.12 4.512-11.472 9.864-14.528 5.072-2.904 11.104-3.464 16.584-1.536 0.32 0.12 0.64 0.24 0.928 0.36 0.4 0.16 9.176 3.744 21.568 10.624l5.232 2.976 14.848 8.416 2.336 1.408 1.008 0.6c3.864 2.296 6.88 5.832 8.488 10.064l0.608 1.608c1.488 3.664 3.544 8.408 6.2 13.688 0.52 1.008 1.048 2.008 1.528 3.016 0.64-0.64 1.328-1.248 2.056-1.808 5.472-4.232 12.64-5.512 18.952-3.304 1.208 0.4 2.336 0.968 3.464 1.608l1.816 1.080c1.408 0.808 2.776 1.608 4.144 2.456 2.576 1.728 4.752 2.896 6.84 4.024 2.128 1.168 4.224 2.336 6.28 3.584 1.768 1.008 3.904 2.288 6.080 3.624v0.040c2.256 1.128 4.464 2.256 6.64 3.464l1.648 0.888c1.888 1.008 3.824 2.056 5.64 3.176 0.12 0.080 0.8 0.328 1.448 0.648 1.368 0.6 2.736 1.248 4.064 1.928 2.736 1.448 5.792 3.904 7.608 6.4l0.928 1.248c0.968 1.368 1.936 2.736 2.936 4.064 4.424-1.768 9.456-1.968 14.088-0.32l0.28 0.080 3.056 1.128 5.512 2.056c2.216 0.608 4.392 1.248 6.56 1.896 3.376 1.008 6.72 2.008 10.144 2.816 1.488 0.36 2.976 0.64 4.464 0.888 7.16 1.288 13.68 2.416 20.408 2.976 1.688 0.16 3.304 0.52 4.912 1.088 1.656 0.568 3.224 1.368 4.672 2.336 2.896-1.648 6.2-2.576 9.576-2.536 3.256 0 6.52 0.040 9.864-0.12 10.024-0.24 19.76-1.128 27.168-1.896 6.6-0.608 12.8-1.408 18.712-2.216l-5.472-7.488-3.904-5.392c-1.288-1.856-2.376-3.304-3.496-4.792-2.496-3.344-5.272-7.128-7.968-11.552l-0.92-1.488-9.584-15.296c-2.576-4.272-5.232-8.456-7.888-12.68-5.352-8.488-10.904-17.264-16.336-26.888l-9.944-18.8-14.088-26.72c-5.552-11.512-10.504-22.904-15.288-33.888-2.456-5.712-4.992-11.472-7.568-17.224-5.032-12.48-9.336-24.672-13.488-36.464-2.096-6.040-4.224-12.072-6.44-18.112-0.12-0.328-0.24-0.688-0.36-1.048-1.856-6.16-3.584-12.4-5.312-18.64l-2.576-9.176c-0.928-3.544-1.776-6.52-2.656-9.544-1.808-6.32-3.704-12.84-4.952-19.88-0.928-4.464-1.936-9.296-2.976-14.088-2.856-13.56-5.832-27.576-7.408-41.696l-1.208-8.536c-0.88-6.072-1.728-12.032-2.336-17.992l-1.288-16.056-0.768-9.904c-0.768-7.688-0.888-15.296-1.008-22.656l-0.040-2.776c-0.040-2.864-0.080-5.44-0.16-8.016-0.12-5.432-0.2-10.704 0-15.896l0.008-0.352c23.96 8.104 59.24 17.672 106.184 23.44-0.040 0.76-0.064 1.504-0.104 2.272l-0.12 2.696c-0.32 5.88-0.568 11.432-0.36 16.944l0.28 23.464c0.16 4.184 0.568 8.936 0.928 13.768 0.24 3.016 0.48 6.080 0.688 9.136 0.48 11.104 2.096 22.176 3.784 33.928 0.728 4.952 1.448 9.944 2.096 14.976 0.52 4.832 1.608 9.576 2.696 14.608 0.728 3.264 1.488 6.56 2.096 9.856l1.888 9.056c1.088 5.112 2.128 10.176 3.304 15.296 1.768 6.072 3.496 12.192 5.232 18.312 3.024 10.824 5.88 21.008 9.176 31.032 2.056 5.392 4.224 11.472 6.392 17.504 3.584 10.024 7.128 19.888 10.992 29.424l2.056 4.584 17.304 38.68c3.824 7.968 8.248 16.064 12.52 23.912 2.496 4.544 4.912 8.976 7.16 13.28l9.016 16.784c1.648 3.264 3.376 5.88 5.072 8.408 1.208 1.896 2.416 3.744 3.504 5.592l1.208 1.896 13.728 21.656 2.816 4.424 4.632-3.096 4.392-2.976c5.272-3.624 10.864-7.448 16.416-11.632 6.2-4.544 14.048-10.424 21.336-16.664 2.856-2.376 5.272-4.584 7.688-6.76 2.536-2.376 5.6-3.944 8.896-4.712 0.808-3.264 2.416-6.32 4.792-8.808 4.584-4.912 8.648-10.144 12.8-15.496 3.216-3.944 5.88-8.336 8.688-12.92 1.168-1.936 2.376-3.864 3.584-5.792l2.816-5.352 1.448-2.736c2.336-4.464 6.232-7.808 10.784-9.456-0.16-1.848-0.32-3.424-0.52-4.992l-0.16-1.528c-0.36-3.144 0.040-6.32 1.168-9.296 0.728-1.968 1.328-3.336 1.936-4.752 0.28-0.64 0.6-1.288 0.8-1.976 0.48-1.488 1.168-3.544 1.888-5.592l0.688-1.888c0.728-2.216 1.608-4.552 2.536-6.84l0.040-0.080c0.688-2.456 1.408-4.912 2.256-7.32 0.48-1.728 1.248-3.984 2.056-6.28 0.8-2.288 1.648-4.544 2.216-6.92 0.64-2.216 1.088-3.744 1.568-5.232l0.64-2.056c2.456-7.848 9.416-13.44 17.632-14.048 0.92-0.080 1.888-0.080 2.816-0.040-0.28-0.92-0.52-1.848-0.76-2.736-1.608-5.952-3.304-10.824-4.752-14.848l-0.36-0.888c-1.608-4.232-1.928-9.256-0.6-13.56l0.36-1.088 0.76-2.576 7.248-21.816c4.672-13.56 8.776-22.136 8.936-22.496 2.656-5.552 7.768-9.576 13.808-10.904 3.664-0.768 7.408-0.52 10.872 0.688 2.248 0.76 4.344 1.968 6.232 3.496 0.768 0.688 7.888 6.72 17.552 18.032 5.792 6.6 11.352 14.048 16.224 21.896 5.472 8.616 11.312 18.352 16.216 30.104 1.936 4.392 4.624 10.704 7.088 17.592 2.168 6.92 4.024 13.48 5.752 20.288 1.888 6.48 2.864 13.48 3.824 20.32l0.28 2.096c0.52 3.744 1.008 7.608 1.408 11.512 0.040 0.36 0.080 0.728 0.080 1.088 0.16 3.944 0.36 7.968 0.36 12.032l0.040 2.816c0.040 3.096 0.080 6.2 0 9.296-0.12 3.944-0.52 7.808-0.92 11.712l-0.16 1.656-1.448 12.432c-0.040 0.448-0.12 0.928-0.2 1.368-0.6 3.184-1.328 6.4-2.088 9.664l-0.728 3.216c-3.624 16.864-10.704 35.056-21.008 54.016-12.4 20.36-24.792 35.656-38.392 47.528-7.728 6.92-16.016 13.28-24.552 18.76l0.16 0.080c1.608 0.568 3.136 1.328 4.544 2.296 1.408-1.208 2.576-2.296 3.744-3.344l1.168-1.048c2.336-2.128 5.112-3.656 8.128-4.464 2.096-0.6 3.584-0.92 5.032-1.248 0.728-0.16 1.408-0.288 2.096-0.488 1.488-0.52 3.544-1.168 5.632-1.768l1.936-0.568c2.256-0.688 4.672-1.328 7.088-1.936l0.040-0.040c2.376-0.848 4.792-1.688 7.288-2.456 1.648-0.608 3.944-1.288 6.28-1.976s4.672-1.368 6.88-2.256c2.176-0.8 3.664-1.328 5.192-1.808l2.008-0.64c4.352-1.496 8.936-1.408 13.040 0.040 3.304 1.168 6.32 3.184 8.696 6 0.6 0.72 1.128 1.488 1.648 2.248 0.608-0.72 1.208-1.488 1.816-2.216 3.864-4.792 6.84-9.016 9.256-12.56l0.56-0.88c2.456-3.784 6.28-6.88 10.584-8.336l1.080-0.4 2.536-0.848 5.232-1.648 16.704-5.232c13.68-4.184 23.064-5.872 23.464-5.952 3.424-0.6 6.92-0.28 10.144 0.8 2.456 0.888 4.792 2.216 6.76 4.024 4.584 4.104 7.040 10.144 6.6 16.296-0.136 1-0.864 10.336-4.368 24.784z" />
<glyph unicode="&#xe923;" glyph-name="multilingual-staff" d="M343.112 327.52c76.832 0 139.12 62.288 139.12 139.12s-62.288 139.12-139.12 139.12c-76.832 0-139.12-62.288-139.12-139.12s62.288-139.12 139.12-139.12zM450.976 325.224c0 0-24.992-42.744-107.864-42.744-89.592 0-108.256 42.928-108.256 42.928-129.088-44.648-198.464-70.128-198.464-311.544h106.624v127.944c0 10.856 8.808 19.656 19.656 19.656s19.656-8.808 19.656-19.656v-127.944h299.912v127.944c0 10.856 8.808 19.656 19.656 19.656s19.656-8.808 19.656-19.656v-127.944h109.968c0.008 252.648-51.744 266.552-180.544 311.36zM755.32 881.424c-134.016 8.456-247.368-59.92-253.192-152.688-4.976-78.432 68.56-149.168 172.36-174.256-28.384-23.4-59.248-39.264-89.664-45.968 49.72-19.664 109.504-4.304 161.752 36.448 128.536-3.608 235.168 63.344 240.792 153.24 5.856 92.752-98.032 174.792-232.048 183.224z" />
<glyph unicode="&#xe924;" glyph-name="housekeeping" d="M562.080 679.28c-54.064 42.416-111.064 42.376-153.432 0l-32.88-32.88-264.488 264.512c-4.528 4.528-11.864 4.528-16.392 0l-49.192-49.184c-4.528-4.536-4.528-11.872 0-16.4l264.496-264.52-32.88-32.888c-42.368-42.376-42.408-99.376 0-153.44l27.064-35.24 292.952 292.976-35.248 27.064zM777.808 427.2c7.2 5 16.272-0.24 33.248-12.36 57-40.736 105.632-58.736 133.376-67.832 18.456 29.232 31.6 55.44 37.264 76.624-37.168 19.44-84.040 41.784-124.36 64.136-84.744 46.992-162.696 93.64-228.44 136.056l-289.264-289.304c42.408-65.752 89.048-143.712 136.032-228.472 22.352-40.312 44.704-87.2 64.136-124.368 20.856 5.576 46.568 18.392 75.248 36.4-7.28 34.024-28.456 79.84-67.744 132.984-12.392 16.768-17.368 26.040-12.36 33.248 0.432 0.624 2.6 2.8 3.216 3.224 7.2 5.048 18.52 2.456 33.296-12.328 53.296-53.304 99.376-88.040 117.208-104.912 23.152 17.976 47.048 37.8 71 58.688-8.944 14.688-34.888 68.224-92.248 142.192-12.776 16.48-17.36 26.048-12.352 33.248 0.432 0.632 2.608 2.808 3.208 3.232 7.216 5.040 17.096 0.872 33.296-12.328 68.752-56.016 127.656-83.352 142.24-92.288 20.672 23.68 40.304 47.32 58.152 70.248-16.808 17.704-51.592 63.928-105.056 117.392-14.776 14.768-17.376 26.096-12.328 33.296 0.432 0.624 2.6 2.792 3.232 3.224z" />
<glyph unicode="&#xe925;" glyph-name="coffee-shop" d="M776.576 819.864c-7.072 19.896-48.312 102.232-74.744 102.232 0 0-104.656 10.768-173.776-18.928-65.312-7.136-205.888-22.44-205.888-22.44-26.424 0-66.912-17.808-65.040-60.872 57.904 0.008 469.408 0.64 519.448 0.008zM278.84 117.688l5.416-71.392c0-25.336 36.56-78.288 64.408-78.288h324.696c27.816 0 64.4 52.952 64.4 78.288l5.232 67.872c-58.784-8.64-138.328-13.112-225.944-13.112-93.824-0.008-178.432 6.896-238.208 16.632zM810.44 813.368c-5.28 2.904-11.488 2.632-18.136 2.632h-560.632c-6.624 0-12.792 0.272-18.112-2.632-10.28-5.592-17.176-14.88-17.176-26.608 0-13.36 9.008-22.16 21.776-26.96 4.168-1.6 8.736 0.208 13.52 0.208h560.632c4.832 0 9.368-1.336 13.544 0.272 12.792 4.808 21.768 14.224 21.768 27.584-0.008 11.728-6.896 19.904-17.184 25.504zM231.672 704c-4.784 0-9.344 1.512-13.52 3.104l47.112-521.28 5.616-9.784c62.048-9.744 149.944-15.736 247.408-15.736 90.952 0 173.624 5.328 234.64 13.968l5.984 13.784 46.928 519.040c-4.168-1.592-8.704-3.096-13.536-3.096h-560.632z" />
<glyph unicode="&#xe926;" glyph-name="library" d="M145.928 293.616l184.584-39.576c-0.040 0.264 218.424-46.76 224.344-47.776 9.832-1.672 15.472-0.696 21.976 2.576s399.096 210.136 399.096 210.136c13.496 7.104 18.688 23.816 11.584 37.336-7.128 13.496-23.8 18.688-37.336 11.584l-391.184-205.96-432.96 93.12c-25.568 5.488-41.872 30.68-36.376 56.272 5.488 25.568 30.664 41.832 56.272 36.384l405.528-86.688c12.032-2.104 19.856-1.2 28.88 3.608 9.024 4.816 395.6 208.144 395.6 208.144 13.496 7.128 18.688 23.84 11.584 37.336-7.128 13.496-23.8 18.704-37.336 11.584l-390.872-205.84-433.28 92.776c-25.568 5.488-41.872 30.68-36.376 56.272 5.488 25.568 30.664 41.832 56.272 36.376l390.864-82.648c12.424-2.048 17.672 1.432 21.656 3.608 18.256 8.968 393.248 205.584 393.248 205.584 26.976 13.992 24.664 30.232-5.168 36.080l-388.568 78.176c-29.84 5.848-76.56-0.336-103.832-13.784 0 0-364.6-181.176-367.568-183.44-25.16-13.856-44.448-38.072-50.952-68.376-8.024-37.392 5.488-74.352 32.152-98.136-15.736-14.008-27.376-32.88-32.152-55.032-8.12-37.864 5.768-75.296 33.048-99.040-16.208-14.080-28.216-33.256-33.048-55.872-11.88-55.44 23.44-110 78.888-121.864 0 0 426.736-92.048 437.864-93.856 11.128-1.8 17.768-1.32 26.624 3.4 8.872 4.72 396.952 209.056 396.952 209.056 13.496 7.128 18.688 23.84 11.584 37.336s-23.8 18.688-37.336 11.584l-391.328-206.112-432.816 93.024c-25.568 5.488-41.872 30.664-36.376 56.248 5.48 25.584 30.584 41.808 56.264 36.4zM534.664 750.936l185.952-37.504-81.816-38.768-185.936 37.512 81.8 38.76z" />
<glyph unicode="&#xe927;" glyph-name="gift-shop" d="M156.928 23.432c0-26.784 21.912-48.696 48.696-48.696h284.608v535.696h-333.304v-487zM899.52 689.792h-199.688c62.6 16.168 161.6 54.808 170.624 138.92 6.296 58.648-80.224 111.144-134.672 89.976-96.16-37.4-150.6-147.232-172.6-202.432-6.2 4.592-14.488 7.688-25.784 7.36-13.32-0.392-22.512-4.16-28.968-9.248-21.504 54.568-76.104 166.504-173.344 204.32-54.456 21.168-140.96-31.328-134.672-89.976 9.024-84.112 108.024-122.752 170.624-138.92h-193.104c-26.784 0-48.696-21.912-48.696-48.696v-83.712h360.984v54.84c0 27.32 21.16 49.672 47.032 49.672s47.032-22.352 47.032-49.672v-54.84h363.92v83.712c0 26.784-21.912 48.696-48.688 48.696zM446.128 689.792c-50.488 26.232-227.232 123.624-167.208 172.736 73.832 60.416 174.608-129.76 196.072-172.736h-28.864zM595.872 689.792c21.472 42.968 122.24 233.152 196.072 172.736 60.032-49.112-116.712-146.504-167.208-172.736h-28.864zM584.288-25.264h287.32c26.784 0 48.696 21.912 48.696 48.696v487h-336.016v-535.696z" />
<glyph unicode="&#xe928;" glyph-name="wedding-services" d="M843.712 766.136c-7.472 27.184-14.928 54.344-22.4 81.536-19.8-20.056-39.6-40.12-59.4-60.176l81.8-21.36zM912.952 829l-81.816 21.352c7.472-27.184 14.944-54.344 22.416-81.528 19.8 20.064 39.608 40.12 59.4 60.176zM770.504 653.048l71.448 102.976-83.448 21.784 12-124.76zM853.384 753.040l-80.072-134.16 164.448 112.144-84.376 22.016zM942.64 740.32l-22.408 81.528-59.392-60.168 81.8-21.36zM718.040 631.368l-28.432 57.144c-43.496-2.472-85.296-14.984-122.432-35.76 17.736-11.704 34.24-24.92 49.376-39.408 31.432 13.496 66.064 19.976 101.488 18.024zM858.416 644.456l-52.728-35.96c94.808-46.44 147.072-154.632 119.384-260.72-31.608-121.096-155.448-193.664-276.544-162.056s-193.664 155.448-162.064 276.544c9.48 36.304 27.24 68.24 50.736 94.32-14.696 12.2-30.88 22.856-48.368 31.648-26.56-31.392-46.688-69.064-57.768-111.504-39.592-151.688 51.312-306.816 203-346.408s306.816 51.312 346.408 203c31.904 122.232-20.952 246.688-122.056 311.136zM814.032 854.824l-81.808 21.352 22.408-81.52c19.8 20.056 39.6 40.112 59.4 60.168zM304.816 97c-144.496 37.72-231.096 185.488-193.384 329.992 37.72 144.504 185.496 231.104 330 193.384s231.104-185.496 193.384-330c-6.864-26.296-17.384-50.672-30.856-72.728 14.848-8.056 30.888-14.456 47.968-18.92 5.944-1.552 11.888-2.832 17.824-3.856 13.32 24.152 23.896 50.336 31.176 78.248 47.248 181.008-61.232 366.12-242.24 413.36-181.008 47.248-366.12-61.232-413.368-242.24s61.232-366.12 242.24-413.36c121.824-31.8 245.496 6.944 327.752 90.848-24.008 7.648-46.432 18.112-66.976 30.92-64.952-55.12-154.84-78.8-243.52-55.648zM722.376 873.488l-59.392-60.168 81.808-21.352c-7.472 27.168-14.944 54.344-22.416 81.52zM747.072 780.792l-84.376 22.024 88.664-178.208-4.288 156.184z" />
<glyph unicode="&#xe929;" glyph-name="fire-place" d="M513.984 129.272c-39.304 0-76.992 6.896-111.928 19.552v-142.632c0-19.608 15.896-35.504 35.504-35.504h148.896c19.608 0 35.496 15.896 35.496 35.504l-0.008 141.336c-33.592-11.824-69.88-18.256-107.96-18.256zM513.984 200.272c142.304 0 253.728 115.368 253.728 257.68 0 249.528-257.696 467.368-257.696 467.368s-253.72-217.84-253.72-467.368c-0.008-142.312 115.368-257.68 257.688-257.68zM510.76 707.608c0 0 161.056-136.16 161.056-292.104 0-70.368-43.576-130.192-105.824-152.112 21.92 16.496 35.904 43.008 35.904 72.896 0 87.72-90.592 164.312-90.592 164.312s-89.2-76.592-89.2-164.312c0-29.36 13.968-55.448 35.616-72-61.592 22.616-105.536 81.784-105.536 151.216 0 155.944 158.576 292.104 158.576 292.104zM957.936 161.968l-151.752 151.752c-32.552-68.008-87.592-123.080-156.184-154.808l152.432-152.44c13.864-13.864 36.344-13.864 50.208 0l105.288 105.288c13.872 13.872 13.872 36.344 0.008 50.208zM218.304 314.208l-152.24-152.24c-13.864-13.864-13.864-36.344 0-50.208l105.288-105.288c13.864-13.864 36.344-13.864 50.208 0l153.504 153.504c-68.28 31.888-123.8 86.56-156.76 154.232z" />
<glyph unicode="&#xe92a;" glyph-name="grocery-shooping-service" d="M819.608 788.856c-4.752 0.6-13.312 0.984-19.456-2.664-2.296-1.368-3.624-3.832-4.68-6.288-1.952-4.552-3.944-8.848-5.968-13.032l-17.392 9.288c-1.072 0.576-1.68 1.736-1.688 2.952-0.080 6.92-1.896 29.36-22.32 33.064-24.224 4.424-41.44-19.8-49.176-30.168-6.744-9.056-21.264-16.368-28.104-19.456-0.968-0.432-0.864-1.864 0.176-2.040 21.176-3.496 22.208-22.152 48.736-21.568 24.112 0.536 39.48 23.904 43.336 30.464 0.584 0.992 1.592 1.728 2.744 1.664 9.256-0.504 16.168-5.904 20.528-10.656-5.496-10.784-11.080-20.208-16.464-28.4-17.944 5.336-39.936-1.344-45.808-12.536-34.648-60-57.688-55.192-92.952-78.264-5.336-3.488-10.944-7.6-16.92-12.688-2.104-1.768-4.144-3.608-6.144-5.496-17.672-16.648-30.96-37.608-34.424-60.392 2.624-0.928 5.16-2.072 7.528-3.584l30.12-19.2 30.16 19.232c5.928 3.768 12.784 5.768 19.816 5.768 7.048 0 13.92-2 19.856-5.792l30.104-19.208 30.168 19.224c6.128 3.896 13.208 5.96 20.464 5.96 3.16 0 6.256-0.432 9.264-1.184 2.216 36.232-8.032 55.92 27.312 109.856 8.728 12.168 1.6 41.728-17.44 53.016 12.976 14.72 27.216 33.888 40.376 58.216 0.88 1.608 0.064 3.68-1.752 3.912zM255.224 774.456l-16.416-4.88c0 0-32.128-89.192-8.776-212.272l3.28 2.024c5.928 3.664 12.752 5.608 19.736 5.608 6.224 0 12.416-1.568 17.888-4.536l39.384-21.36 31.376 20.016c3.328 2.12 6.952 3.608 10.72 4.568 2.968 0.76 6.024 1.216 9.12 1.216 2.968 0 5.888-0.432 8.736-1.128 3.912-0.952 7.68-2.472 11.112-4.664l30.112-19.2 4.392 2.8c-0.816 3.152-1.68 6.232-2.544 9.32-0.032 0.12-0.064 0.24-0.096 0.36-1.696 6.040-3.48 11.968-5.336 17.768 22.56 14.664 50.48 21.472 67.504 21.472 4.632 0 8.456-0.504 11.144-1.488 17.752-6.496 7.024-15.48-14.032-26.992 3.072-0.968 6.032-2.296 8.776-4.048l30.096-19.192 30.096 19.192c5.936 3.792 12.8 5.792 19.848 5.792 3.336 0 6.616-0.48 9.792-1.352 39.176 107.928 91.64 356.648 5.424 356.616-10.496 0-23.072-3.696-37.96-11.784-72.512-39.368-72.464-124.992-72.464-124.992 26.064 28.192 64.896 42.608 83.704 42.608 3.912 0 6.952-0.624 8.84-1.88 16.928-11.256-29.056-39.216-109.64-77.216-74.088-34.912-43.44-98.424-43.44-98.424 25.752 33.88 80.304 65.776 108.216 65.768 5.072 0 9.264-1.056 12.248-3.336 27.512-21.096-47.512-49.688-111.080-75.208-10.952-4.4-19.328-10.096-25.752-16.528-2.568 5.768-5.184 11.384-7.864 16.84-5.352 10.904-10.912 21.128-16.552 30.784-43.976 75.264-93.16 112.6-93.16 112.6l-16.432-4.872zM217.64 779.504l62.488 18.544c2.072 0.616 3.248 2.792 2.64 4.856l-10.344 34.856c-0.616 2.072-2.792 3.248-4.856 2.64l-62.496-18.544c-2.072-0.616-3.24-2.792-2.632-4.856l10.336-34.856c0.624-2.072 2.8-3.256 4.864-2.64zM803.656 472.992l-38.872 16.984c-0.936 0.408-1.936 0.608-2.936 0.608-1.376 0-2.744-0.384-3.936-1.144l-43.408-27.664c-1.008-0.64-2.152-0.952-3.296-0.952s-2.288 0.312-3.296 0.96l-43.36 27.656c-1.008 0.64-2.152 0.96-3.296 0.96s-2.288-0.32-3.288-0.952l-43.392-27.664c-1.008-0.64-2.152-0.952-3.296-0.952-1.152 0-2.296 0.312-3.296 0.96l-43.368 27.656c-1 0.64-2.152 0.96-3.296 0.96-0.856 0-1.688-0.24-2.48-0.592-0.272-0.12-0.552-0.2-0.808-0.368l-43.36-27.656c-1.008-0.64-2.152-0.96-3.296-0.96s-2.288 0.32-3.288 0.96l-43.36 27.656c-1.008 0.64-2.152 0.96-3.296 0.96s-2.288-0.32-3.288-0.96l-43.376-27.656c-1-0.64-2.144-0.96-3.296-0.96-1.144 0-2.288 0.32-3.296 0.96l-43.368 27.656c-1 0.64-2.144 0.96-3.296 0.96s-2.296-0.32-3.296-0.96l-0.632-0.4-42.744-27.256c-1.080-0.688-2.32-1.040-3.568-1.040-1.088 0-2.176 0.264-3.16 0.8l-51.888 28.136c-1 0.544-2.104 0.808-3.208 0.808-1.24 0-2.464-0.336-3.552-1l-41.616-25.712c-2.056-1.264-3.288-3.544-3.24-5.96l0.536-24.608c0-0.168-0.128-0.304-0.128-0.304-0.344 0-0.48-0.144-0.48-0.312v-313.872c0-78.872 63.952-142.824 142.84-142.824h317.016c78.88 0 142.84 63.952 142.84 142.824v348.8c0 2.36-1.408 4.52-3.576 5.464z" />
<glyph unicode="&#xe92b;" glyph-name="no-elevators" d="M60.032 297.368c-11.864 0-21.528-9.672-21.528-21.536v-107.6c0-11.864 9.664-21.536 21.528-21.536h903.936c11.864 0 21.536 9.672 21.536 21.536v559.544c0 11.864-9.672 21.528-21.536 21.528h-193.728c-11.808 0-21.472-9.664-21.472-21.528v-129.136h-215.264c-11.864 0-21.536-9.672-21.536-21.536v-129.136h-215.2c-11.864 0-21.536-9.672-21.536-21.472v-129.136h-215.2z" />
<glyph unicode="&#xe92c;" glyph-name="picnic-area" d="M936.648 498.568h-849.296c-11.496 0-22.936-9.584-20.904-20.896l49.040-272.104c10.872-60.344 50.272-111.496 111.496-111.496h570.024c61.224 0 100.64 51.248 111.496 111.496l49.040 272.104c2.032 11.256-9.4 20.896-20.896 20.896zM958.056 587.768h-226.224l-198.072 205.112c-5.896 6.112-13.84 9.136-21.76 9.048-7.92 0.088-15.856-2.936-21.76-9.048l-198.072-205.112h-226.224c-18.952 0-34.464-15.504-34.464-34.464v0c0-18.952 15.504-34.464 34.464-34.464h892.104c18.952 0 34.464 15.504 34.464 34.464v0c0 18.96-15.504 34.464-34.456 34.464zM374.928 587.768l137.072 141.944 137.080-141.944h-274.152z" />
<glyph unicode="&#xe92d;" glyph-name="tennis" d="M608.528 354.592c-16.712-3.44-33.512-5.408-50.168-5.408-52.248 0-97.288 17.408-130.224 50.328-81.176 81.2-62.592 231.864 41.408 335.872 58.272 58.28 133.224 91.704 205.656 91.712 52.272 0 97.288-17.408 130.208-50.312 37.792-37.776 55.24-92.36 49.16-153.688-0.624-6.328-1.704-12.632-2.808-18.936 19.352-3.672 37.864-9.976 55.096-18.688 17.736 86.64-1.528 172.824-60.736 232.016-45.192 45.176-106.080 67.184-170.936 67.176-84.112-0.008-174.84-37.040-246.352-108.568-63.92-63.928-92.464-130.656-107.232-219.336-14.768-88.672-29.744-213.064-86.456-269.776s-192.504-189.328-192.504-189.328c-6.888-6.864-6.888-18.112 0-24.976l56.504-56.2c6.904-6.864 18.208-6.864 25.096 0 0 0 113.544 110.952 188.792 186.192 75.248 75.248 252.080 87.784 268.024 89.952s31.376 4.192 47.336 7.904c-0.92 1.72-1.912 3.368-2.776 5.112-7.88 15.744-13.416 32.2-17.088 48.952zM150.592 72.712c-2.432-2.432-5.608-3.648-8.8-3.648-3.176 0-6.368 1.216-8.8 3.648l-34.272 34.24c-4.856 4.848-4.856 12.728 0 17.592 4.84 4.848 12.72 4.872 17.592 0.008l34.272-34.24c4.872-4.856 4.872-12.736 0.008-17.6zM197.864 116.784c-2.432-2.44-5.624-3.648-8.8-3.648s-6.368 1.216-8.8 3.64l-34.256 34.24c-4.856 4.856-4.856 12.728 0 17.584 4.856 4.88 12.736 4.872 17.6 0.008l34.256-34.24c4.864-4.856 4.864-12.72 0-17.584zM318.32 277.368l-11.592 11.592c19.248 33.064 32.28 69.608 41.944 106.248 10.952-14.632 22.736-28.656 35.104-41.032 12.216-12.216 25.856-23.808 39.984-34.608-36.272-9.576-72.28-22.528-105.44-42.2zM647.24 454.112c-1.928-5.776-3.504-11.608-4.808-17.464l42.76-42.704c51.248-51.088 51.544-51.472 52.512-52.728 25.44-25.312 70.8-42.776 112.28-22.032 9.072 4.544 17.248 10.424 24.296 17.488 7.112 7.12 13 15.288 17.472 24.288 19.056 38.096 10.76 83.328-21.104 115.28-2.672 2.488-11.904 11.696-54.248 54.168l-39.008 39.056c-14.712-3.032-29.064-7.792-42.824-14.672-41.616-20.808-72.632-56.56-87.328-100.68zM968.16 476.944c-29.688 59.384-89.424 96.272-155.872 96.272-0.576 0-1.144-0.096-1.72-0.096l24.28-24.32c22.712-22.792 51-51.16 53.52-53.48 40.608-40.576 50.864-97.672 26.712-146.016-5.744-11.496-13.272-21.952-22.368-31.056-9.024-9.040-19.472-16.56-31.064-22.368-15.88-7.936-33.144-11.792-50.584-11.792-33.072 0-66.776 13.848-92.856 39.912-2.688 2.912-28.568 28.72-51.4 51.488l-28.496 28.464c-0.848-28.368 5.328-56.672 18.376-82.76 29.712-59.392 89.44-96.288 155.904-96.288 27.12 0 53.272 6.2 77.728 18.432 85.856 42.944 120.776 147.736 77.84 233.608z" />
<glyph unicode="&#xe92e;" glyph-name="shopping-on-site" d="M351.968 614.28c12.032 0 21.768 9.632 21.768 21.536v48.424c0 88.512 35.464 191.912 135.432 191.912 122.256 0 135.456-134.2 135.456-191.912v-48.424c0-11.904 9.736-21.536 21.768-21.536s21.768 9.632 21.768 21.536v48.424c0 144.968-68.592 234.992-179 234.992-107.048 0-178.976-94.44-178.976-234.992v-48.424c0.008-11.904 9.744-21.536 21.784-21.536zM820.976 694.68c0 24.832-20.32 45.152-45.152 45.152h-60.352v-119.376c0-24.832-25.312-45.152-50.152-45.152h-2.84c-24.84 0-45.152 20.32-45.152 45.152v119.376h-217.936v-119.376c0-24.832-20.32-45.152-45.152-45.152h-2.848c-24.84 0-56.808 20.32-56.808 45.152v119.376h-63.144c-21.152 0-38.464-17.312-38.464-38.464l-40.576-684.080c0-24.832 20.32-45.152 45.152-45.152h636.488c24.84 0 45.152 20.32 45.152 45.152l-58.216 677.392z" />
<glyph unicode="&#xe92f;" glyph-name="casino" d="M959.48 667.904l-332.384 171.216c-27.040 13.936-60.568 3.488-74.68-23.208l-7.312-17.976c0 0 2.6-12.912 3.504-17.776l27.288-152.904c7.872 1.248 16.056 1.424 24.48 0.256 12.376-1.672 23.216-5.312 32.552-10.696 17.224-9.936 27.384-21.32 32.264-38.816s2.856-30.056 2.856-30.056 13.248 7.008 27.968 12.152c14.992 5.24 41.984 4.168 65.648-17.352 26.104-23.744 31.832-69.304 17.72-97.992-21.64-44.16-78.040-74.768-155.512-86.248l34.072-190.912c4.48-33.096-30.136-59.472-44.232-59.52l38.504-21.192c27.056-13.936 60.528-3.552 74.656 23.144l256.040 484.152c14.096 26.688 3.624 59.8-23.432 73.728zM513.432 718.832c-0.904 4.864-3.296 8.96-5.36 13.224-10.512 21.712-33.944 35.272-59.024 30.752l-368.84-66.464c-30.016-5.408-49.96-33.976-44.48-63.6l99.4-537.24c5.48-29.624 34.352-49.32 64.376-43.912l368.824 66.464c4.864 0.872 8.936 3.216 13.208 5.208 22.088 10.312 35.888 33.488 31.288 58.32l-99.392 537.248zM437.928 337.976c-10.496-6.688-21.12-10.896-31.76-12.816-19.632-3.536-36.448 1.144-50.104 8.696l58.136-67.52-123.608-22.272 30.28 83.552c-7.368-8.656-17.872-15.512-30.16-20.496-4.512-1.824-8.408-4.28-13.672-5.232-10.632-1.92-22.088-1.688-34.192 0.928-30.784 6.448-53.128 27.864-61.368 58.696-15.944 59.376 23.336 137.68 105.064 209.336l3.992 3.536c0.72 0.648 1.608 1.016 2.52 1.184 0.92 0.168 1.88 0.128 2.8-0.224l5.2-1.88c37.64-14.224 70.112-31.336 96.544-50.296 45.224-32.432 72.6-70.344 76.6-108.912 3.344-31.704-9.792-59.512-36.272-76.28z" />
<glyph unicode="&#xe930;" glyph-name="ski-passes-available" d="M887.512 539.376c55.84 0 101.104 45.28 101.104 101.12 0 55.816-45.264 101.096-101.104 101.096-55.832 0-101.096-45.28-101.096-101.096 0-55.84 45.264-101.12 101.096-101.12zM930.216 450.016c3.040 14.4-6.136 28.536-20.512 31.56l-0.464 0.112-87.736 18.6c-16.36 9.448-33.664 19.44-51.68 29.84l-7.104 115.336c-1.416 22.464-24.872 64.336-24.872 64.336-6.688 13.944-25.32 21.184-33.88 24.096l-6.48 2.208-10.016 3.648c-3.144 1.12-6.264 2.176-9.384 3.216-6.224 2.096-12.472 4.056-18.76 5.904-12.592 3.728-25.408 7.080-38.672 9.88-13.248 2.8-26.928 5.088-41.384 6.536-7.24 0.68-14.688 1.168-22.408 1.304-3.88 0.080-7.8 0.080-11.84-0.056l-1.512-0.056-0.752-0.024c-0.368-0.024 0.72 0.112-0.872-0.112h-0.48l-6.72-0.168-5.88-0.44-5.664-0.464c-3.592-0.328-7.16-0.656-10.704-1.064-7.096-0.792-14.12-1.792-21.072-2.912-13.944-2.288-27.624-5.2-41.072-8.632-13.48-3.432-26.736-7.432-39.888-11.928-1.2-0.408-2.368-0.848-3.552-1.256-87.128 50.232-149.64 86.232-151.68 87.4l-9.832-17.072c3.992-2.288 240.992-138.832 439.816-253.568l19.824-78.088 0.344-2.264c2.016-13.448 12.768-24.448 26.896-26.16l168.744-20.64c1.456-0.16 2.928-0.192 4.368-0.136 25.072-14.544 41.824-24.312 46.992-27.416l10.168 16.856c-4.424 2.696-17.368 10.264-36.784 21.536 2.12 2.96 3.696 6.336 4.504 10.088zM770.536 129.8l-350.248 211.44 218.72 115.848c6.152 3.296 11.936 7.84 16.688 13.504 15.776 18.84 17.008 45.064 4.888 64.936-104.608 60.392-220.472 127.176-307.76 177.496-5.904-5.040-11.16-11.024-15.448-17.968-21.904-35.504-10.872-82.064 24.64-103.976l140.48-86.664-170.256-110.024-263.56 159.112-33.296-55.552 701.576-419.296c11.424-6.912 23.072-9.552 34.24-9.552 35.696 0 83.456 38.424 85.152 39.92l-21.28 36.16c-0.344-0.296-37.008-32.016-64.536-15.384zM446.624 592.96c-0.288-0.168-0.2-0.080-0.168-0.056 0.024 0.056 0.072 0.080 0.168 0.136v-0.080z" />
<glyph unicode="&#xe931;" glyph-name="private-beach" d="M878.288 641.896c-1.936 8.632-4.76 17.544-8.296 26.128-3.792 9.512-8.336 20.008-15.032 30.992-2.416 4.128-5.992 10.040-10.2 16.12-4.368 5.832-8.584 11.216-13.128 16.648-4.12 5.344-9.32 10.288-14.304 15.064l-1.568 1.504c-2.712 2.632-5.584 5.304-8.544 7.936-0.28 0.24-0.528 0.448-0.848 0.688-3.080 2.472-6.288 4.984-9.6 7.416l-2.272 1.704c-2.464 1.824-4.984 3.688-7.576 5.464-3.312 2.192-6.68 4.168-10.080 6.16l-1.464 0.848-11.016 6.12c-0.424 0.2-0.808 0.408-1.232 0.608-2.992 1.416-6.024 2.712-9.144 4.056l-3.048 1.296c-15.344 6.72-33.688 11.504-54.304 14.296-1.624 2.224-3.52 4.256-6.040 5.712-4.248 2.472-10.816 6.16-18.64 9.24-3.84 1.624-8.208 3.328-12.88 4.864-5.216 1.536-9.952 2.8-14.904 3.968-4.824 1.296-10.256 1.944-15.064 2.512l-1.464 0.16c-2.712 0.368-5.552 0.648-8.384 0.888 0 0-0.688 0.048-1.056 0.048-2.872 0.072-5.816 0.12-8.776 0.072h-1.952c-2.272 0-4.496-0.032-6.8-0.12-2.904-0.16-5.832-0.52-8.704-0.848l-1.144-0.16-4-0.52c-0.16 0.408-0.336 0.888-0.496 1.296l-0.968 1.936c-1.056 2.192-2.152 4.376-3.24 6.48-0.248 0.4-0.44 0.768-0.744 1.176l-4.528 7.288-0.848 1.296c-1.584 2.432-3.152 4.864-4.824 7.088-1.496 1.944-2.944 3.728-4.368 5.472l-1.248 1.544c-1.864 2.224-3.768 4.456-5.712 6.64-0.208 0.248-0.456 0.528-0.744 0.776-2.024 2.024-4.056 4.008-6.080 5.912l-1.040 1.016c-3.52 3.28-7.544 7.048-12.16 10.328-3.52 2.672-7.544 5.512-11.416 8.144-4.832 2.96-8.952 5.232-13 7.296-8 4.376-16.136 7.368-22.976 9.72-6.304 2.232-12.968 3.976-19.68 5.152-10.504 1.984-17.584 2.144-18.36 2.184-2.432 0.040-4.808-0.368-6.992-1.136-3.52-1.256-6.664-3.408-9.040-6.36-2.184-2.712-3.4-5.912-3.968-9.28-5.816 2.272-11.56 4.296-17.112 5.752l-3.080 0.896c-3.192 0.888-6.432 1.776-9.584 2.552-0.456 0.12-0.936 0.2-1.376 0.28l-3.192 0.512-8.92 1.544-1.976 0.288c-3.896 0.6-7.792 1.168-11.56 1.496-3.312 0.24-6.432 0.368-9.512 0.488l-2.872 0.12c-4.056 0.16-8.104 0.2-12.104 0.248-0.368 0-0.736-0.040-0.736-0.040-4.296-0.2-8.208-0.488-12.032-0.848l-2.096-0.176c-6.888-0.648-14.024-1.256-21.232-2.96-3.4-0.688-7.368-1.536-11.168-2.432-2.768-0.648-5.48-1.336-8.16-2.024-4-1.176-7.152-2.232-10.24-3.28-3.048-1.056-6.008-2.184-8.88-3.28-11.696-4.216-21.792-9.56-30.904-14.704-7.984-4.416-15.72-9.6-22.92-15.312-11.592-8.952-17.992-15.8-18.712-16.568-4.208-4.584-6.080-10.816-5.072-16.936 1.024-6.16 4.792-11.464 10.256-14.416 0.32-0.208 8.76-4.776 21.952-10.048l12.688-4.944 9.024-3.488 2.592-0.976 1.112-0.36c4.248-1.584 8.912-1.664 13.248-0.248l1.6 0.528c2.84 0.888 7.104 2.144 12.16 3.32l2.52 0.56c1.096 0.288 2.184 0.528 3.312 0.728-0.12-0.888-0.16-1.816-0.12-2.752 0.208-8.264 5.144-15.68 12.912-18.552l2.040-0.728c1.496-0.568 2.992-1.136 4.496-1.664 3.032-0.888 5.304-1.864 7.52-2.752 2.24-0.928 4.512-1.816 6.768-2.632 1.904-0.768 4.296-1.616 6.696-2.424h0.032c2.312-1.056 4.616-2.072 6.928-3l1.744-0.688c1.128-0.488 2.216-0.896 3.368-1.336-12.688-0.080-26.056-1.584-40.72-5.024-5.144-1.216-10.256-2.592-15.256-4.096-0.336-0.12-0.616-0.2-0.952-0.328-20.44-7.208-38.024-16.040-52.208-26.248l-2.624-1.816c-2.752-1.944-5.48-3.848-8.072-5.84-0.352-0.28-0.72-0.56-1.056-0.888l-5.712-4.984-3.488-3.080-1.536-1.336c-2.904-2.632-5.832-5.304-8.472-8.024-2.256-2.384-4.32-4.736-6.344-7.088l-1.936-2.144c-2.68-3.040-5.288-6.16-7.824-9.24-0.208-0.28-0.456-0.568-0.648-0.848-2.312-3.2-4.584-6.4-6.728-9.6l-1.184-1.704c-3.88-5.752-7.896-11.664-11.168-18.344-2.992-5.672-5.992-11.832-8.704-17.784-3.168-7.456-5.392-14.016-7.016-18.96-4.12-11.752-6.36-22.968-8.144-33.256-1.584-8.952-2.52-18.272-2.592-27.432-0.408-14.664 0.848-23.984 1.008-24.992 0.848-6.16 4.544-11.544 9.936-14.624 5.096-2.92 11.168-3.488 16.688-1.544 0.32 0.12 0.632 0.24 0.936 0.368 0.384 0.16 9.232 3.768 21.704 10.688l5.272 3 14.944 8.464 2.344 1.416 1.024 0.608c3.88 2.312 6.928 5.872 8.544 10.128l0.616 1.624c1.48 3.688 3.56 8.464 6.24 13.776 0.528 1.016 1.056 2.024 1.536 3.032 0.648-0.648 1.336-1.256 2.064-1.816 5.512-4.256 12.72-5.552 19.080-3.32 1.216 0.408 2.344 0.968 3.488 1.624l1.816 1.096c1.408 0.808 2.8 1.624 4.176 2.472 2.592 1.744 4.776 2.92 6.888 4.056 2.152 1.168 4.248 2.344 6.304 3.6 1.8 1.016 3.928 2.312 6.128 3.648v0.048c2.256 1.136 4.496 2.272 6.68 3.488l1.656 0.896c1.904 1.016 3.856 2.064 5.672 3.2 0.12 0.080 0.808 0.328 1.464 0.648 1.376 0.6 2.752 1.248 4.088 1.936 2.752 1.464 5.832 3.936 7.648 6.448l0.952 1.256c0.952 1.376 1.936 2.752 2.944 4.096 4.456-1.776 9.536-1.984 14.184-0.328l0.28 0.080 3.080 1.136 5.552 2.064c2.224 0.616 4.408 1.256 6.592 1.904 3.416 1.016 6.768 2.024 10.216 2.84 1.496 0.368 2.992 0.648 4.496 0.896 7.208 1.296 13.776 2.432 20.544 2.992 1.688 0.16 3.312 0.52 4.936 1.096 1.672 0.568 3.24 1.376 4.704 2.344 2.904-1.656 6.24-2.592 9.64-2.552 3.28 0 6.576 0.040 9.92-0.12 10.096-0.248 19.896-1.136 27.344-1.904 6.64-0.616 12.88-1.416 18.832-2.232l-5.512-7.536-3.912-5.424c-1.304-1.864-2.392-3.32-3.52-4.816-2.52-3.368-5.32-7.168-8.032-11.632l-0.92-1.496-9.656-15.392c-2.592-4.296-5.272-8.504-7.928-12.768-5.392-8.544-10.992-17.376-16.456-27.056l-10.008-18.92-14.192-26.904c-5.6-11.584-10.576-23.048-15.4-34.112-2.464-5.752-5.024-11.544-7.608-17.336-5.072-12.56-9.408-24.832-13.568-36.704-2.112-6.080-4.264-12.152-6.48-18.224-0.12-0.328-0.264-0.68-0.368-1.056-32.4-112.752-40.296-226.64-31.272-275.136 6.768-51.872 27.16-98.376 48.488-130.936l98.040 23.56c0 0-43.048 105.656-41.368 189.488l0.104 0.016c-0.032 0.768-0.056 1.512-0.104 2.288l-0.104 2.712c-0.336 5.912-0.56 11.504-0.368 17.056l0.28 23.616c0.16 4.216 0.56 8.992 0.936 13.856 0.248 3.032 0.496 6.12 0.688 9.2 0.472 11.176 2.096 22.32 3.808 34.144 0.72 4.984 1.464 10 2.112 15.072 0.512 4.864 1.6 9.64 2.712 14.704 0.72 3.28 1.496 6.6 2.096 9.928l1.904 9.12c1.096 5.144 2.152 10.248 3.328 15.392 1.776 6.112 3.528 12.28 5.272 18.432 3.032 10.896 5.92 21.152 9.232 31.232 2.064 5.432 4.248 11.544 6.432 17.624 3.608 10.088 7.168 20.016 11.064 29.616l2.064 4.616 17.424 38.928c3.856 8.024 8.296 16.168 12.6 24.064 2.504 4.576 4.936 9.032 7.208 13.368l9.080 16.896c1.656 3.28 3.4 5.912 5.112 8.464 1.216 1.904 2.432 3.768 3.52 5.632l1.216 1.904 13.816 21.792 2.84 4.456 4.648-3.12 4.424-2.992c5.304-3.648 10.944-7.496 16.528-11.712 6.24-4.576 14.128-10.488 21.464-16.768 2.872-2.392 5.304-4.616 7.736-6.8 2.552-2.392 5.64-3.976 8.952-4.744 0.808-3.28 2.432-6.36 4.832-8.864 4.616-4.944 8.704-10.208 12.88-15.6 3.24-3.968 5.92-8.384 8.76-13 1.16-1.944 2.4-3.888 3.592-5.832l2.84-5.384 1.464-2.76c2.344-4.496 6.272-7.856 10.856-9.52-0.16-1.864-0.32-3.44-0.528-5.024l-0.16-1.544c-0.368-3.16 0.056-6.36 1.184-9.36 0.72-1.984 1.336-3.36 1.936-4.776 0.28-0.648 0.6-1.296 0.808-1.984 0.496-1.496 1.184-3.56 1.904-5.632l0.688-1.904c0.736-2.232 1.624-4.584 2.552-6.888l0.032-0.080c0.704-2.472 1.424-4.944 2.272-7.376 0.496-1.736 1.248-4.008 2.064-6.32 0.808-2.304 1.656-4.576 2.24-6.968 0.648-2.224 1.096-3.768 1.568-5.272l0.648-2.064c2.488-7.896 9.48-13.528 17.744-14.136 0.936-0.080 1.904-0.080 2.84-0.040-0.28-0.928-0.528-1.864-0.76-2.76-1.624-5.992-3.328-10.896-4.792-14.944l-0.352-0.888c-1.624-4.256-1.96-9.32-0.616-13.648l0.368-1.096 0.76-2.592 7.296-21.96c4.704-13.648 8.824-22.272 9-22.64 2.68-5.592 7.808-9.64 13.888-10.976 3.68-0.768 7.456-0.528 10.944 0.688 2.272 0.768 4.368 1.984 6.272 3.52 0.776 0.688 7.944 6.768 17.672 18.152 5.832 6.64 11.416 14.136 16.312 22.040 5.512 8.672 11.384 18.472 16.336 30.296 1.936 4.416 4.648 10.776 7.136 17.704 2.184 6.968 4.032 13.568 5.776 20.416 1.904 6.52 2.888 13.568 3.84 20.456l0.28 2.104c0.528 3.768 1.024 7.656 1.424 11.584 0.056 0.368 0.088 0.728 0.088 1.096 0.16 3.968 0.352 8.024 0.352 12.112l0.032 2.84c0.056 3.12 0.088 6.24 0 9.36-0.104 3.968-0.512 7.864-0.92 11.784l-0.16 1.664-1.464 12.512c-0.032 0.448-0.12 0.936-0.208 1.376-0.6 3.2-1.336 6.44-2.096 9.72l-0.72 3.24c-3.664 16.976-10.784 35.288-21.16 54.368-12.472 20.496-24.952 35.888-38.64 47.84-7.768 6.968-16.12 13.368-24.704 18.872l0.16 0.080c1.624 0.568 3.152 1.336 4.56 2.312 1.424-1.216 2.608-2.312 3.768-3.368l1.184-1.056c2.344-2.144 5.144-3.68 8.192-4.496 2.096-0.6 3.592-0.928 5.056-1.248 0.72-0.16 1.408-0.288 2.096-0.488 1.512-0.528 3.576-1.176 5.672-1.776l1.952-0.568c2.272-0.688 4.704-1.336 7.12-1.944l0.056-0.040c2.376-0.848 4.808-1.704 7.328-2.472 1.656-0.608 3.968-1.296 6.304-1.984 2.36-0.688 4.704-1.376 6.944-2.272 2.184-0.808 3.68-1.336 5.216-1.816l2.024-0.648c4.368-1.504 8.984-1.416 13.128 0.032 3.312 1.184 6.36 3.2 8.736 6.040 0.616 0.728 1.144 1.496 1.672 2.272 0.6-0.728 1.216-1.496 1.816-2.232 3.896-4.816 6.888-9.072 9.32-12.64l0.56-0.888c2.488-3.808 6.328-6.928 10.656-8.384l1.096-0.408 2.552-0.848 5.272-1.664 16.808-5.272c13.76-4.208 23.208-5.912 23.608-5.992 3.456-0.6 6.976-0.28 10.216 0.808 2.464 0.888 4.808 2.232 6.8 4.056 4.616 4.128 7.080 10.208 6.624 16.408-0.072 1-0.8 10.4-4.336 24.944zM700.336 178.192h-30.672v29.768c-5.664 33.672-30.272 57.416-61.624 57.416-32.304 0-57.44-22.088-62.088-57.368v-29.816h-30.208c-2.056 0-3.736-1.68-3.736-3.736v-153.16c0-2.056 1.68-3.736 3.736-3.736h184.6c2.056 0 3.736 1.68 3.736 3.736v153.16c-0.016 2.056-1.696 3.736-3.744 3.736zM650.768 178.192h-84.736v29.816c4.368 22.976 20.976 36.136 42 36.136 21.128 0 38.416-13.040 42.688-36.184 0.184-0.984 0.104-19.208 0.048-29.768z" />
<glyph unicode="&#xe932;" glyph-name="garden" d="M756.456 190.472c17.72 169.872 73.456 322.464 154.752 440.296-134.672-67.648-241.52-188.368-297.4-337.072 2.824 194.072 48.544 371.664 125.008 510.896-114.496-72.384-204.784-186.304-257.104-323.168 6.336-23.456 15.552-61.984 23.968-114.12 1.36-8.4-4.36-16.328-12.776-17.688-0.832-0.136-1.664-0.208-2.48-0.208-7.432 0-13.992 5.392-15.216 12.976-33.888 209.88-220.664 271.064-220.664 271.064 30.4-101.52 48.256-213.688 50.568-331.832-46.8 110.288-153.056 200.304-252.592 254.592 40.616-74.496 74.88-164.616 99.824-267.8-58.92 81.28-115.224 102.080-115.224 102.080s121.488-114.184 134.808-299.072h680.128c10.312 135.272 71.256 204.896 134.808 302.648-98.512-42.176-179.584-114.12-230.408-203.592z" />
<glyph unicode="&#xe933;" glyph-name="nightclub" d="M155.88 133.944c-9.288 11.184-16.696 25.824-28.024 47.928-11.328-22.104-18.736-36.752-28.024-47.928-9.192-11.296-21.248-20.32-39.424-34.128 18.176-13.704 30.208-22.672 39.408-33.928 9.296-11.144 16.712-25.752 28.040-47.76 11.336 22.008 18.752 36.616 28.048 47.76 9.2 11.264 21.24 20.224 39.408 33.928-18.184 13.808-30.24 22.832-39.432 34.128zM382.28 142.328c-29.704 4.592-59.224 10.352-88.456 17.32-15.848 3.776-31.616 7.912-47.28 12.376 31.944-72.36 88.696-131.296 159.496-166.032-0.056 0.232-0.12 0.472-0.176 0.704-10.64 44.656-18.496 89.984-23.584 135.632zM653.568 481.168c-2.2 10.712-4.56 21.384-7.096 32.016-10.12 42.48-23.040 84.328-38.328 125.264-10.488 1.72-20.752 2.944-32.064 3.672v282.024h-44.112v-281.976c-11.312-0.72-22.112-1.968-32.824-3.728-15.28-40.936-28.176-82.784-38.296-125.264-2.536-10.632-4.944-21.312-7.152-32.016 33.224 2.976 66.568 4.488 99.936 4.488s66.712-1.504 99.936-4.48zM394.808 474.312c3.28 17.4 6.96 34.728 11.064 51.952 7.568 31.76 16.552 63.192 26.88 94.184-83.176-32.136-150.328-96.456-186.192-177.696 15.664 4.472 31.432 8.6 47.272 12.376 33.328 7.944 67.040 14.328 100.976 19.184zM712.416 474.312c33.936-4.856 67.648-11.24 100.984-19.184 15.856-3.776 31.624-7.912 47.304-12.384-35.872 81.256-103.040 145.584-186.232 177.712 10.328-30.992 19.304-62.432 26.88-94.192 4.104-17.224 7.784-34.552 11.064-51.952zM377.312 200.272c-1.304 22.040-1.968 44.128-1.968 66.208 0 49.936 3.368 99.864 10.016 149.352-26.336-4.216-52.52-9.4-78.456-15.584-27.448-6.544-54.64-14.216-81.488-22.928-4.784-22.56-7.32-45.952-7.32-69.944 0-23.984 2.536-47.368 7.32-69.928 26.856-8.712 54.040-16.384 81.488-22.928 23.296-5.552 46.784-10.288 70.408-14.248zM920.472 634.008c-10.168 12.232-18.264 28.248-30.664 52.432-12.392-24.184-20.496-40.2-30.656-52.432-10.056-12.36-23.248-22.224-43.128-37.328 19.88-14.992 33.048-24.8 43.112-37.112 10.168-12.192 18.28-28.168 30.68-52.248 12.4 24.072 20.512 40.056 30.68 52.248 10.064 12.312 23.232 22.12 43.112 37.112-19.888 15.096-33.072 24.968-43.136 37.328zM800.32 400.248c-25.936 6.184-52.12 11.368-78.456 15.584 6.648-49.48 10.016-99.416 10.016-149.352 0-22.080-0.664-44.168-1.968-66.208 23.624 3.968 47.112 8.696 70.4 14.256 27.464 6.544 54.656 14.216 81.52 22.936 4.784 22.552 7.32 45.936 7.32 69.92s-2.536 47.376-7.32 69.928c-26.864 8.712-54.056 16.384-81.512 22.936zM724.944 142.328c-5.088-45.648-12.944-90.976-23.592-135.632-0.056-0.24-0.12-0.48-0.176-0.72 70.816 34.736 127.584 93.68 159.528 166.048-15.68-4.472-31.456-8.608-47.312-12.384-29.224-6.968-58.744-12.72-88.448-17.312zM553.616 429.232c-36.8 0-73.592-1.928-110.184-5.736-7.744-51.952-11.664-104.48-11.664-157.016 0-24.76 0.888-49.512 2.616-74.208 39.576-4.464 79.4-6.736 119.232-6.736s79.656 2.272 119.232 6.736c1.728 24.696 2.616 49.456 2.616 74.208 0 52.536-3.92 105.064-11.664 157.016-36.6 3.808-73.392 5.736-110.184 5.736zM439.96 134.904c4.824-38.728 11.744-77.184 20.784-115.128 3-12.568 6.248-25.080 9.704-37.528 26.592-6.784 54.464-10.4 83.168-10.4 28.696 0 56.552 3.608 83.144 10.392 3.456 12.456 6.712 24.96 9.704 37.536 9.048 37.944 15.968 76.4 20.784 115.128-37.752-3.848-75.696-5.792-113.648-5.792-37.936 0.008-75.88 1.944-113.64 5.792z" />
<glyph unicode="&#xe934;" glyph-name="connecting-room" d="M794.2 921.44h-564.4c-34.832 0-63.152-31.504-63.152-70.208v-876.672h50.88v876.672c0 11.056 6.456 19.328 12.272 19.328h564.392c5.664 0 12.272-8.448 12.272-19.328v-876.672h50.88v876.672c0.008 38.704-28.32 70.208-63.144 70.208zM748.096 837.336l-401.048-34.864c-17.368 0-31.576-18.944-31.576-42.096v-670.792l464.192-115.024v820.68c0.008 23.152-14.2 42.096-31.568 42.096zM391.584 391.256c-16.432 0-29.752 13.32-29.752 29.76s13.32 29.76 29.752 29.76c16.432 0 29.76-13.32 29.76-29.76s-13.328-29.76-29.76-29.76z" />
<glyph unicode="&#xe935;" glyph-name="smoking-areas" d="M364.696 370.528h356.016v94.808l-356.016-0.008v-94.8zM189.056 370.528h164.24l0.008 94.792h-164.248v-94.792zM733.088 370.528l18.544 0.008 0.008 94.784-18.56 0.008 0.008-94.8zM512.024 923c-261.928 0-475.024-213.096-475.024-474.976 0-261.928 213.096-475.024 475.024-475.024 261.88 0 474.976 213.096 474.976 475.024 0 261.88-213.096 474.976-474.976 474.976zM512.024 67.080c-210.064 0-380.944 170.88-380.944 380.944 0 210.016 170.88 380.904 380.944 380.904 210.016 0 380.904-170.88 380.904-380.904-0.008-210.064-170.888-380.944-380.904-380.944zM763.992 465.328v-94.792l18.544 0.008 0.008 94.784h-18.552zM763.84 558.952c-3.808 27.28-18.528 45.064-51.424 46.712-2.664 0.128-4.536 95.024-69.056 89.104-62.56-5.736-61.232-89.976 8.216-92.496 12.616-0.464-32.904-51.256 36.736-56.824 62.832-5.016 63.592-46.048 63.592-46.048s16.456 27.128 11.936 59.552z" />
<glyph unicode="&#xe936;" glyph-name="smoke-free" d="M219.44 380.192h157.792l0.008 102.232h-157.8v-102.232zM396.576 482.424v-102.232h69.112l-69.112 102.232zM667.592 380.192h77.944v102.24l-155.872-0.008 77.928-102.232zM792.040 583.392c-4.112 29.424-19.984 48.6-55.464 50.376-2.872 0.136-4.888 102.48-74.48 96.096-67.472-6.192-66.032-97.040 8.856-99.76 13.608-0.496-35.488-55.28 39.616-61.288 67.768-5.416 68.584-49.656 68.584-49.656s17.76 29.264 12.888 64.232zM792.2 482.424v-102.232l19.992 0.008 0.008 102.224h-20zM515.256 922.776c-261.408 0-474.088-212.68-474.088-474.040s212.68-474.040 474.088-474.040c261.368 0 474.040 212.68 474.040 474.040s-212.68 474.040-474.040 474.040zM515.256 68.576c-209.656 0-380.2 170.544-380.2 380.152 0 116.488 52.728 220.864 135.512 290.648l417.288-629.184c-51.84-26.536-110.48-41.616-172.6-41.616zM765.512 162.944l-416.304 627.696c50.2 24.472 106.544 38.24 166.048 38.24 209.608 0 380.152-170.544 380.152-380.152 0-113.824-50.368-216.056-129.896-285.784zM758.872 380.192l20 0.008 0.008 102.224-20.016 0.008 0.008-102.24z" />
<glyph unicode="&#xe937;" glyph-name="tours-ticket-assistance" d="M978.416 407.12l-103.512 47.768-1.632-7.016c-4.232-21.248-23.064-36.72-45.648-37.68-7.112-0.288-13.168-5.48-14.512-12.496-1.44-7.016 2.112-14.128 8.552-17.104 20.472-9.608 31.904-31.144 27.584-52.384l-4.040-20.184c-5.28-26.624-34.696-43.248-60.456-36.904-7.208 1.728-14.608 3.072-21.912 4.512-10.768 2.112-21.528 4.328-32.288 6.44-14.232 2.88-28.456 5.672-42.68 8.552-16.912 3.368-33.928 6.824-50.84 10.192-18.928 3.84-37.864 7.592-56.8 11.44-20.184 4.040-40.464 8.080-60.648 12.208-20.76 4.136-41.52 8.36-62.184 12.496-20.56 4.128-41.040 8.264-61.6 12.4l-58.824 11.824c-17.976 3.552-35.848 7.208-53.824 10.76-15.568 3.080-31.136 6.248-46.616 9.328-12.4 2.496-24.8 5-37.288 7.496l-25.648 5.184c-3.944 0.768-7.88 1.632-11.824 2.4-0.192 0-0.384 0.096-0.576 0.096 2.112-9.992 1.152-20.664-3.456-30.656-9.712-20.952-32.296-31.912-54.016-27.68-6.44 1.256-13.456-1.152-16.24-7.112l-8.648-18.744c-2.784-5.952 0-12.88 5.088-17.008 0.96-0.768 693.72-320.136 694.864-320.424 6.44-1.248 13.456 1.152 16.248 7.112l8.648 18.736c2.784 5.96 0 12.88-5.096 17.008-17.296 13.744-23.64 38.056-13.936 59.016 9.704 20.952 32.288 31.904 54.016 27.68 6.44-1.248 13.456 1.152 16.24 7.112l8.648 18.736c2.792 5.96 0 12.88-5.096 17.008-17.296 13.744-23.64 38.056-13.936 59.008s32.288 31.904 54.016 27.68c6.44-1.248 13.456 1.152 16.24 7.112l8.648 18.736c2.792 5.96 0 12.88-5.096 17.016-17.296 13.744-23.64 38.056-13.936 59.008s32.288 31.904 54.016 27.68c6.44-1.248 13.456 1.152 16.24 7.112l9.512 20.752c2.8 5.984 0.208 13-5.752 15.784zM812.144 314.568l4.032 20.184c1.248 6.44-2.976 12.584-8.936 15.376-19.992 9.416-31.816 31.528-27.296 54.208s24.024 38.544 46.136 39.504c6.536 0.288 12.88 4.328 14.128 10.672l2.976 14.8 1.056 5.48c1.256 6.44-2.976 12.592-8.936 15.376-19.992 9.416-31.816 31.52-27.296 54.2 4.52 22.688 24.024 38.544 46.136 39.504 6.528 0.288 12.872 4.32 14.128 10.664l4.040 20.184c1.248 6.44-2.984 12.592-8.944 15.376-19.992 9.416-31.816 31.52-27.296 54.2 4.512 22.688 24.024 38.544 46.128 39.504 6.536 0.288 12.88 4.32 14.128 10.664l4.512 22.392c1.248 6.44-2.88 12.688-9.32 13.936 0 0-751.48 150.696-752.248 150.696-5.576 0-10.48-3.944-11.632-9.52l-4.512-22.392c-1.248-6.44 2.984-12.592 8.936-15.376 19.984-9.416 31.808-31.528 27.296-54.208-4.52-22.68-24.024-38.536-46.136-39.496-6.536-0.288-12.88-4.328-14.128-10.664l-4.032-20.184c-1.248-6.44 2.976-12.592 8.936-15.376 19.992-9.416 31.816-31.52 27.296-54.208-4.52-22.68-24.024-38.536-46.136-39.496-6.536-0.288-12.88-4.328-14.128-10.664l-4.040-20.184c-1.256-6.44 2.976-12.592 8.936-15.376 19.992-9.416 31.816-31.52 27.296-54.208-4.52-22.68-24.024-38.536-46.136-39.496-6.528-0.288-12.88-4.328-14.128-10.664l-4.040-20.184c-1.344-6.44 2.888-12.488 8.848-15.28 1.152-0.576 748.976-150.6 750.224-150.6 6.56 0.28 12.904 4.312 14.152 10.656zM302.192 778.392l-10.96-54.496-12.392-61.8-10-49.784-17.784-89c-2.304-11.432-12.296-19.312-23.544-19.312-1.536 0-3.176 0.192-4.704 0.48-0.672 0.096-1.344 0.288-1.928 0.48-11.912 3.456-19.312 15.472-16.816 27.768l3.56 17.976 9.32 46.512 38.16 190.584c2.592 12.976 15.28 21.432 28.256 18.84 12.968-2.592 21.424-15.272 18.832-28.248zM735.456 691.416l-31.72-157.816-19.512-97.264c-2.304-11.432-12.296-19.32-23.544-19.32-1.536 0-3.168 0.192-4.712 0.488-12.976 2.592-21.432 15.28-18.84 28.256l21.816 108.504 29.408 146.568c2.592 12.976 15.28 21.432 28.256 18.832s21.44-15.272 18.848-28.248z" />
<glyph unicode="&#xe938;" glyph-name="game-room" d="M145.816 238.68c-48.96 32.544-88.648 96.008-88.648 96.008l-19.984-222.496c-7.168-79.776 107.808-116.464 153.208-65.192 41.88 47.288 81.104 96.096 120.096 144.48 11.432 14.168-47.2-30.888-164.672 47.2zM986.808 112.184l-19.984 222.496c0 0-39.688-63.464-88.648-96.008-117.472-78.088-176.096-33.032-164.68-47.208 38.984-48.384 78.216-97.192 120.096-144.48 45.408-51.264 160.384-14.576 153.216 65.2zM868.592 265.048c48.96 32.544 77.512 74.544 94.376 112.536l-3.792 42.28c-0.792 8.872-1.592 20.52-2.448 32.76-1.76 25.152-3.912 53.576-7.848 71.024-15.72 69.696-66.056 126.184-131.896 150.24-71.528 26.144-151.096 10.832-208.24-39.032-1.080-0.952-2.168-1.904-3.224-2.872-9.28-8.448-20.056-14.288-32.576-14.288h-26.264v17.856c0 8.952-7.256 16.248-16.168 16.248h-0.064c-0.048 35.168-0.048 60.208 5.672 81.016 5.48 19.888 16.792 37.432 39.6 59.256 1.76 1.68 3.48 3.328 5.176 4.944 30.12 28.672 51.376 48.904 51.376 91.416 0 8.976-7.248 16.248-16.168 16.248-8.936 0-16.176-7.28-16.176-16.248 0-28.648-17.072-44.896-41.272-67.936-1.688-1.608-3.424-3.256-5.176-4.936-27.456-26.288-41.328-48.272-48.448-74.112-6.856-24.936-6.856-51.848-6.808-89.648h-0.072c-8.904 0-16.168-7.296-16.168-16.248v-17.856h-26.224c-12.528 0-23.296 5.84-32.576 14.288-1.064 0.968-2.136 1.928-3.224 2.872-57.144 49.864-136.72 65.168-208.24 39.032-65.84-24.056-116.176-80.544-131.896-150.24-3.936-17.456-6.088-45.88-7.848-71.024-0.856-12.232-1.648-23.88-2.448-32.76l-3.792-42.28c16.872-37.992 45.424-79.992 94.376-112.536 117.304-77.968 189.12-31.368 189.328-31.224l0.008 0.016h55.728c31.128 0 56.6 25.592 56.6 56.872v3.688c0 8.952 7.264 16.248 16.168 16.248h72.784c8.912 0 16.176-7.296 16.176-16.248v-3.696c0-31.28 25.472-56.872 56.6-56.872h55.72c0.016 0 71.896-46.872 189.368 31.216zM402.84 411.44h-84.904l0.016-85.312h-72.784l-0.008 85.312h-84.904v73.12h84.88l0.024 85.312h72.776l-0.016-85.312h84.912v-73.12zM827.352 484.56c20.096 0 36.392-16.368 36.392-36.56s-16.288-36.56-36.392-36.56c-20.096 0-36.392 16.368-36.392 36.56s16.296 36.56 36.392 36.56zM742.456 569.872c20.096 0 36.392-16.376 36.392-36.568s-16.288-36.568-36.392-36.568c-20.096 0-36.392 16.368-36.392 36.568s16.288 36.568 36.392 36.568zM657.552 411.432c-20.096 0-36.392 16.376-36.392 36.568s16.296 36.568 36.392 36.568c20.096 0 36.392-16.368 36.392-36.568 0-20.192-16.296-36.568-36.392-36.568zM706.056 362.688c0 20.192 16.296 36.568 36.392 36.568s36.392-16.376 36.392-36.568-16.296-36.56-36.392-36.56-36.392 16.368-36.392 36.56z" />
<glyph unicode="&#xe939;" glyph-name="children-club" d="M443.976 419.984h-383.168c-13.216 0-24.032-10.816-24.032-24.032v-354.232c0-13.216 10.816-24.032 24.032-24.032h383.168c13.216 0 24.032 10.816 24.032 24.032v354.232c0 13.216-10.816 24.032-24.032 24.032zM321.424 110.464h-8.6c-6.976 0-13.152 4.512-15.272 11.16l-12.456 39.016c-2.12 6.648-8.296 11.16-15.272 11.16h-45.104c-7.064 0-13.288-4.616-15.344-11.376l-11.712-38.584c-2.048-6.76-8.28-11.376-15.344-11.376h-6.92c-10.864 0-18.584 10.584-15.272 20.928l59.088 184.36c2.128 6.64 8.296 11.144 15.272 11.144h27.056c6.944 0 13.104-4.472 15.248-11.080l59.888-184.36c3.36-10.368-4.36-20.992-15.256-20.992zM257.76 254.968c-4.16 13.152-7.688 27.928-10.904 40.448h-0.656c-3.216-12.52-6.408-27.608-10.272-40.448l-10.16-32.48c-3.232-10.328 4.48-20.824 15.304-20.824h11.76c10.856 0 18.576 10.568 15.272 20.912l-10.344 32.392zM467.032 738.168c-2.512 0.376-4.792 0.688-6.872 0.944-8.624 1.056-16.464-4.952-17.76-13.544l-4.248-28.208c-1.32-8.76 4.712-16.928 13.472-18.24l4.152-0.624c26.992-4.064 44.128 6.344 46.856 24.464 3.016 19.984-10.832 31.48-35.6 35.208zM450.832 650.024l-3.512 0.528c-8.76 1.32-16.92-4.712-18.24-13.472l-5.88-39.064c-1.296-8.608 4.488-16.744 13.072-18.176 1.64-0.272 3.368-0.544 5.192-0.824 25.080-3.776 48.72 2.424 52.688 28.776 3.736 24.76-16.328 38.168-43.32 42.232zM986.816 112.712l-65.76 348.072c-2.456 12.992-15.088 21.608-28.080 19.152l-248.384-46.928c5.992 3.6 10.448 9.656 11.52 17.072l50.624 350.592c1.888 13.080-7.272 25.336-20.352 27.224l-379.24 54.776c-13.080 1.888-25.336-7.272-27.224-20.352l-50.624-350.592c-1.888-13.080 7.272-25.336 20.352-27.224l378.296-54.632-111.48-21.064c-12.992-2.456-21.608-15.088-19.152-28.080l65.76-348.072c2.456-12.992 15.088-21.608 28.080-19.152l376.512 71.136c12.984 2.448 21.6 15.080 19.152 28.072zM542.68 701.456c-2.96-19.672-18.064-35.912-42.52-41.008l-0.096-0.624c21.688-9.104 39.64-30 35.2-59.528-2.872-19.056-13.36-32.728-27.272-41.032-17.256-11.048-43.344-13.944-82.408-8.064-13.104 1.968-24.24 4.24-33.128 6.336-8.152 1.928-13.472 9.728-12.224 18.008l27.48 182.608c1.216 8.104 8.336 13.928 16.528 13.64 12.384-0.44 27.92-1.848 43.016-4.12 28.904-4.344 46.168-10.52 59.248-22.872 12.104-9.92 18.896-25.248 16.176-43.344zM830.592 156.256c-9.816-4.792-23.312-9.648-39.32-13.088-67.168-14.456-117.048 18.84-130.888 83.2-14.992 69.68 24.288 122.144 88.96 136.064 14.888 3.208 27.688 4.048 37.504 3.712 8.888-0.304 15.688-8.056 15.176-16.936l-0.048-0.808c-0.496-8.648-7.736-15.4-16.392-15.080-8.144 0.296-17.44-0.352-27.768-2.568-43.016-9.256-68.288-42.928-57.344-93.8 9.992-46.448 43.736-70.392 90.184-60.4 9.144 1.968 18.264 5.048 26.064 8.624 8.2 3.76 17.856 0.24 21.504-8.016 3.472-7.904 0.12-17.12-7.632-20.904z" />
<glyph unicode="&#xe93a;" glyph-name="air-condition" d="M910.808 263.352l-120.416 69.504 87.32 14.488c17.184 2.856 28.832 19.12 25.96 36.304-2.832 17.184-18.784 28.944-36.328 25.976l-163.040-27.072-113.36 65.448 113.36 65.448 163.040-27.072c1.752-0.296 3.512-0.44 5.184-0.44 15.192 0 28.592 10.96 31.144 26.432 2.872 17.184-8.776 33.456-25.96 36.304l-87.32 14.496 120.416 69.496c18.856 10.888 25.36 35.048 14.432 53.904s-35.008 25.36-53.904 14.456l-120.376-69.496 31.104 82.832c6.104 16.328-2.2 34.528-18.464 40.648-16.352 6.144-34.528-2.112-40.712-18.44l-58.096-154.76-113.32-65.448v130.896l104.944 127.672c11.088 13.48 9.168 33.376-4.304 44.44-13.512 11.12-33.368 9.088-44.456-4.328l-56.184-68.32v138.976c0 21.792-17.664 39.472-39.472 39.472s-39.472-17.68-39.472-39.472v-138.976l-56.184 68.32c-11.088 13.416-30.984 15.448-44.456 4.328-13.48-11.064-15.392-30.96-4.352-44.44l104.984-127.672v-130.896l-113.32 65.448-58.136 154.76c-6.144 16.328-24.32 24.56-40.672 18.44-16.304-6.12-24.56-24.32-18.424-40.648l31.064-82.832-120.376 69.496c-18.896 10.904-42.984 4.408-53.904-14.456-10.928-18.856-4.424-43.024 14.432-53.904l120.376-69.496-87.28-14.496c-17.184-2.848-28.832-19.12-25.96-36.304 2.552-15.472 15.952-26.432 31.096-26.432 1.712 0 3.472 0.136 5.224 0.44l163.040 27.072 113.376-65.448-102.632-59.232-172.488 28.648c-21.488 3.688-41.864-10.944-45.416-32.48-3.592-21.488 10.968-41.824 32.496-45.392l77.792-12.92-109.608-63.28c-18.856-10.904-25.36-35.048-14.432-53.928 7.336-12.664 20.576-19.736 34.208-19.736 6.704 0 13.48 1.696 19.696 5.304l120.376 69.48-31.064-82.816c-6.144-16.352 2.112-34.552 18.424-40.672 3.664-1.376 7.416-2.032 11.128-2.032 12.76 0 24.76 7.816 29.544 20.496l58.136 154.76 113.32 65.432v-130.904l-104.984-127.656c-11.048-13.472-9.128-33.392 4.352-44.456 5.856-4.824 12.992-7.2 20.016-7.2 9.128 0 18.184 3.952 24.44 11.52l56.184 68.328v-138.976c0-21.792 17.664-39.472 39.472-39.472s39.472 17.68 39.472 39.472v138.992l56.184-68.328c6.256-7.576 15.272-11.52 24.44-11.52 7.016 0 14.112 2.376 20.016 7.2 13.48 11.064 15.392 30.984 4.304 44.456l-104.96 127.648v130.904l113.32-65.432 58.096-154.76c4.784-12.68 16.824-20.496 29.584-20.496 3.712 0 7.456 0.656 11.128 2.032 16.264 6.12 24.56 24.32 18.464 40.672l-31.104 82.816 120.376-69.48c6.216-3.608 13-5.304 19.696-5.304 13.64 0 26.872 7.072 34.208 19.736 10.928 18.88 4.424 43.016-14.432 53.928z" />
<glyph unicode="&#xe93b;" glyph-name="fan" d="M398.48 544.808c27.536 30.464 67.24 49.728 111.536 49.728 11.344 0 22.36-1.36 32.984-3.744 4.688 10.072 10.632 20.424 18.216 31.032 77.864 119.576 169.896 276.936 32.8 295.536-0.584 0.056-1.064 0.16-1.616 0.216-160.080 26.032-358.528-62.744-250.608-275.272 19.376-40.536 38.8-72.056 56.688-97.496zM433.208 444.080c0-42.416 34.384-76.808 76.808-76.808s76.808 34.384 76.808 76.808c0 42.416-34.384 76.8-76.808 76.8-42.416 0-76.808-34.384-76.808-76.8zM626.824 349.312c-27.584-33.96-69.64-55.688-116.8-55.688-11.328 0-22.32 1.352-32.928 3.728-4-7.584-8.656-15.312-14.272-23.184-77.976-119.6-169.936-276.936-32.768-295.48 0.432-0.128 0.984-0.24 1.536-0.28 160.080-25.992 358.496 62.728 250.608 275.256-18.912 39.576-37.872 70.52-55.376 95.648zM706.36 618.216c-41.936-20.088-74.192-40.152-100.104-58.536 33.12-27.592 54.216-69.128 54.216-115.6 0-9.752-1.008-19.248-2.784-28.472 9.152-4.464 18.544-9.984 28.128-16.808 119.592-77.904 276.928-169.896 295.568-32.8 0.072 0.552 0.184 1.040 0.216 1.592 25.968 160.064-62.736 358.496-275.24 250.624zM359.56 444.080c0 12.888 1.792 25.328 4.848 37.272-8.552 4.296-17.288 9.464-26.2 15.824-119.64 77.896-276.904 169.896-295.536 32.76-0.104-0.504-0.184-1.008-0.248-1.552-26.072-160.064 62.776-358.496 275.288-250.56 38.16 18.216 68.296 36.48 92.944 53.48-31.272 27.584-51.096 67.816-51.096 112.776z" />
<glyph unicode="&#xe93c;" glyph-name="television" d="M487.368 607.832l64.136-194.48c0.752-2.568 1.656-4.832 2.488-6.336 1.664-3.392 4.152-6.112 6.864-8.072 11.92-8.68 52.592-7.664 63.76-4.112 5.128 1.544 9.208 4.264 12.304 8.336 1.96 2.792 3.544 6.080 4.376 9.136l64.512 195.12c1.664 4.976 2.712 9.016 3.168 12 1.584 9.36-2.040 15.392-4.296 18.144-3.696 4.568-9.056 7.28-16 8.112-6.488 0.752-20.368 0.752-27.312 0.224-4.832-0.376-8.528-1.208-11.624-2.528-4.832-2-8.6-5.32-10.944-9.544-1.504-2.608-2.568-5.624-3.016-7.808l-37.048-121.104-37.88 122.12c-0.904 2.792-1.888 5.056-2.936 7.016-1.664 3.168-5.056 7.392-11.544 9.768-2.864 1.096-6.264 1.696-10.792 2.072-6.784 0.528-21.728 0.456-28.448-0.072-6.64-0.568-11.848-2.488-15.84-5.888-5.288-4.68-7.848-11.616-6.944-19.464 0.296-3.024 1.28-7.28 3.016-12.64zM657.344 104.696h-290.728c-14.784 0-26.872-12.096-26.872-26.896 0-14.784 12.096-26.896 26.872-26.896h290.728c14.816 0 26.912 12.112 26.912 26.896 0 14.8-12.096 26.896-26.912 26.896zM950.944 845.088h-877.968c-21.352 0-38.704-17.656-38.704-39.392v-549.104c0-21.768 17.352-39.352 38.704-39.352h330.936v-65.752h216.168v65.752h330.864c21.432 0 38.784 17.584 38.784 39.352v549.112c0 21.728-17.352 39.384-38.784 39.384zM912.312 296.024h-800.624v470.296h800.624v-470.296zM291.416 577.2h44.288v-161.616c0-4.792 1.584-9.24 4.528-12.976 11.016-13.768 55.080-13.656 66.024 0 2.944 3.736 4.528 8.184 4.528 12.976v161.616h38.632l8.072 1.024 4.224 3.392c13.056 10.336 13.808 49.040-0.528 59.752l-6.792 3.888h-157.32l-8.224-0.944-4.224-3.392c-13.128-10.56-12.984-48.064-0.376-59l7.168-4.72z" />
<glyph unicode="&#xe93d;" glyph-name="tv-accesories" d="M774.144 856.304c-74.112 0-139.616-37.512-178.576-94.544h-523.68c-19.2 0-34.8-15.88-34.8-35.416v-493.672c0-19.568 15.6-35.376 34.8-35.376h297.528v-59.12h194.352v59.12h297.456c19.264 0 34.864 15.808 34.864 35.376v229.008c56.856 38.992 94.24 104.408 94.24 178.416 0.008 119.216-96.96 216.208-216.184 216.208zM826.496 268.112h-719.808v422.824h457.392c-3.952-16.32-6.096-33.328-6.096-50.84 0-119.224 96.968-216.208 216.16-216.208 18.048 0 35.576 2.256 52.352 6.44v-162.216zM882.632 611.792h-80.248v-80.096c0-15.664-12.616-28.368-28.32-28.368-15.608 0-28.328 12.704-28.328 28.368v80.096h-80.048c-15.736 0-28.288 12.68-28.288 28.336 0 15.648 12.552 28.272 28.288 28.272h80.048v80.2c0 15.64 12.72 28.288 28.328 28.288 15.704 0 28.32-12.648 28.32-28.288v-80.2h80.248c15.568 0 28.288-12.616 28.288-28.272s-12.72-28.336-28.288-28.336zM597.008 87.96h-260.864c-13.264 0-24.12-10.856-24.12-24.136 0-13.264 10.856-24.136 24.12-24.136h260.856c13.296 0 24.152 10.872 24.152 24.136 0.008 13.288-10.848 24.136-24.144 24.136z" />
<glyph unicode="&#xe93e;" glyph-name="cribs" d="M341.848 616.472c3.8 0.256 7.608 2.248 11.232 5.864l33.856 33.864 8.448-94.368c0.136-1.648 0.272-3.6 0.464-5.8 0.192-2.336 0.416-4.216 0.648-5.632 0.28-1.736 0.744-3.432 1.488-5.016 0.744-1.712 1.856-3.312 3.288-4.752 4.040-4.008 8.72-5.896 13.92-5.568 5.008 0.304 10.016 2.92 14.888 7.768l59.936 59.928c3.704 3.712 5.656 7.56 5.84 11.44 0.184 4.008-1.344 7.744-4.448 10.856-3.112 3.080-6.824 4.544-10.76 4.176-3.712-0.304-7.424-2.32-11.136-5.984l-41.936-41.96-7.6 87.32c-0.6 7.76-1.248 13.080-1.952 16.256-0.88 3.776-3.16 7.52-6.768 11.128-8.080 8.096-17.624 7.848-26.112-0.672l-52.512-52.512c-3.664-3.664-5.616-7.512-5.8-11.456-0.184-4.008 1.304-7.744 4.312-10.784 3.008-2.96 6.672-4.376 10.704-4.096zM433.976 775.504c5.792 0.392 11.504 3.384 16.976 8.88l51.024 51.024 12.712-142.256c0.184-2.488 0.464-5.408 0.744-8.744 0.28-3.528 0.6-6.352 0.928-8.488 0.416-2.624 1.16-5.176 2.224-7.536 1.208-2.6 2.88-5.008 5.016-7.168 6.072-6.048 13.128-8.88 20.96-8.416 7.56 0.456 15.12 4.4 22.456 11.728l90.312 90.336c5.608 5.592 8.584 11.384 8.856 17.256 0.272 6-2.088 11.664-6.776 16.352-4.64 4.64-10.248 6.824-16.232 6.312-5.56-0.512-11.176-3.552-16.696-9.072l-63.216-63.224-11.48 131.592c-0.928 11.736-1.896 19.736-3.016 24.536-1.256 5.688-4.688 11.32-10.16 16.8-12.2 12.176-26.528 11.808-39.384-1.048l-79.128-79.128c-5.52-5.544-8.488-11.344-8.768-17.256-0.272-6.072 2-11.688 6.584-16.256 4.512-4.512 10.032-6.64 16.064-6.224zM982 103.304c-0.976 9.256-2.136 18.552-2.136 27.832-0.088 178.696-0.040 357.392 0 536.088 0 21.984-17.16 40.144-37.76 39.888-20.728-0.28-36.832-17.16-37.064-39.24-0.184-24.672-0.368-49.352-0.088-74.032 0.088-7.648-2.552-10.664-10.296-10.664-50.184 0.072-100.376-0.16-150.56-0.184-55.664-0.024-111.408 0.16-167.12 0.144-23.792 0-47.592-0.048-71.384-0.072l-55.848-55.824c-12.248-12.216-24.624-15.392-32.888-15.888-0.976-0.040-1.856-0.064-2.784-0.064-12.2 0-23.472 4.736-32.464 13.752-3.8 3.8-6.816 8.184-9 13.008-1.712 3.856-2.92 7.888-3.616 12.080-0.272 2.024-0.608 4.48-0.88 7.568l-0.464 6.056-1.712 19.176c-50.008-0.024-100.008 0.024-150.008 0.024-27.648 0-55.296 0.184-82.936-0.12-11.92-0.136-17.488 3.176-16.744 16.816 1.296 22.912 0.552 45.92 0.28 68.904-0.096 4.96-0.744 10.272-2.648 14.792-6.96 16.4-24.624 26.328-39.84 23.12-19.808-4.152-32.056-18.344-32.056-38.632-0.144-177.432-0.328-354.832 0.224-532.248 0.096-15.216 4.176-30.872 8.904-45.504 4.36-13.36 14.384-23.728 29.592-24.864 19.44-1.432 38.96-1.408 58.488-2.112 4.224-0.136 8.448-0.552 15.776-1.064 0 0-8.536-70.32 55.152-70.32 63.728 0 49.024 70.464 49.024 70.464l529.288 0.784c0 0-14.752-71.248 53.856-71.248 68.6 0 56.776 71.408 56.776 71.408 13.496 0 27.040-0.44 40.584 0.072 24.584 0.928 44.536 20.208 42.352 40.104zM220.232 335.2v-184.888c0-17.072-0.184-17.328-16.888-17.304-24.672 0.048-49.304 0.68-73.936 0.096-10.48-0.232-12.992 3.776-12.944 13.408 0.32 58.256 0.136 116.496 0.136 174.728v170.928c0 16.304 0.648 16.744 17.352 16.56 25.048-0.304 50.048-0.752 75.048-0.376 9.648 0.144 11.36-4.376 11.312-12.456-0.176-53.568-0.080-107.12-0.080-160.696zM371.264 132.776c-21.248 0.84-42.536 0.416-63.784 0.136-8.216-0.112-12.248 1.856-12.2 11.368 0.232 117.84 0.136 235.68 0.184 353.52 0 2.872 0.688 5.752 1.152 9.624h90.12v-82.776c0-91.888-0.224-183.768 0.232-275.664 0.064-12.032-3.184-16.688-15.704-16.208zM565.424 148.568c0.184-11.248-2.464-16.16-14.8-15.744-24.624 0.832-49.304 0.648-73.936 0-11.504-0.328-15.496 3.2-15.352 15.208 0.56 57.8 0.232 115.616 0.232 173.44h-0.088c0 57.792 0.136 115.616-0.096 173.424-0.048 8.392 1.208 14.008 11.456 13.8 27.136-0.584 54.32-1.024 81.456-0.84 9.504 0.064 11.128-4.288 11.128-12.448-0.232-76.096-0.184-152.16-0.184-228.256-0.048-39.536-0.368-79.056 0.184-118.584zM716.728 132.776c-21.664 0.792-43.368 0.448-65.032 0.304-8.536-0.048-11.784 3.36-11.784 12.224 0.28 118.608 0.184 237.208 0.28 355.816 0 1.672 0.464 3.336 0.928 6.336h90.4v-94.208c0-88.432-0.232-176.864 0.232-265.272 0.104-11.808-3.384-15.616-15.024-15.2zM888.304 132.872c-22.96 0.624-45.92 0.44-68.88 0-9.504-0.184-12.616 3.568-12.616 12.776 0.184 64.656-0.048 129.296-0.136 193.952-0.048 49.352-0.144 98.68-0.048 148.016 0.048 19.944 0.232 20.36 20.264 20.872 21.664 0.528 43.328-0.024 64.984 0.296 9.56 0.12 13.264-3.032 13.128-13.36-0.464-57.84-0.232-115.704-0.232-173.568h0.232c0-57.424-0.328-114.872 0.272-172.296 0.152-13.072-4.488-17.056-16.968-16.688z" />
<glyph unicode="&#xe93f;" glyph-name="bathtub" d="M76.032 388.56c0-73.576 40.152-137.64 99.68-171.848l-50.648-50.632c-12.536-12.576-12.536-32.984 0-45.536 6.288-6.288 14.52-9.44 22.8-9.44 8.232 0 16.464 3.152 22.76 9.44l72.48 72.504c10.176-1.624 20.496-2.68 31.080-2.68h475.608c10.6 0 20.904 1.056 31.088 2.68l72.488-72.504c6.288-6.288 14.52-9.44 22.8-9.44 8.232 0 16.472 3.152 22.76 9.44 12.536 12.56 12.536 32.96 0 45.536l-50.648 50.632c59.536 34.208 99.68 98.272 99.68 171.848v79.256h-871.928v-79.256zM947.968 566.904h-772.856v99.080c0 46.144 32.656 64.416 59.44 64.416 35.568 0 64.392-28.816 64.392-64.416h54.536c0 65.68-53.24 118.904-118.92 118.904-65.64 0-118.928-53.224-118.928-118.904v-99.080h-39.6c-21.928 0-39.64-17.744-39.64-39.64v-19.8h951.216v19.8c0 21.896-17.712 39.64-39.64 39.64z" />
</font>
</defs>
</svg>
